<svg id="svg" version="1.1" xmlns="http://www.w3.org/2000/svg" xmlns:xlink="http://www.w3.org/1999/xlink" width="400" height="400" viewBox="0, 0, 400,400"><g id="svgg"><path id="path0" d="M211.200 69.987 C 209.770 70.163,207.214 70.328,205.520 70.353 C 200.979 70.422,193.708 71.467,188.439 72.808 C 185.888 73.457,182.360 74.176,180.600 74.406 C 172.950 75.404,171.237 75.691,168.450 76.436 C 166.827 76.870,164.757 77.649,163.850 78.168 C 162.942 78.687,161.480 79.335,160.600 79.608 C 159.720 79.881,158.820 80.233,158.600 80.391 C 158.380 80.549,156.658 81.151,154.774 81.729 C 152.890 82.307,150.640 83.293,149.774 83.920 C 148.908 84.547,146.490 85.942,144.400 87.022 C 142.310 88.101,139.970 89.544,139.200 90.229 C 138.430 90.915,136.540 92.208,135.000 93.104 C 133.460 94.000,131.570 95.396,130.800 96.206 C 130.030 97.017,128.365 98.482,127.100 99.463 C 125.835 100.444,124.800 101.508,124.800 101.828 C 124.800 102.147,123.474 103.802,121.854 105.504 C 120.234 107.207,118.606 109.192,118.235 109.917 C 117.865 110.641,116.707 112.177,115.662 113.331 C 114.589 114.517,113.350 116.467,112.815 117.815 C 111.435 121.288,110.107 123.864,109.274 124.682 C 108.385 125.555,107.642 127.577,105.997 133.600 C 105.306 136.130,104.216 139.396,103.574 140.858 C 99.206 150.812,98.745 183.564,102.811 195.117 C 104.102 198.785,105.269 202.396,107.299 209.000 C 107.976 211.200,109.297 214.350,110.234 216.000 C 111.172 217.650,112.268 219.974,112.670 221.165 C 113.117 222.493,114.114 224.118,115.244 225.365 C 116.258 226.484,117.498 228.210,117.999 229.200 C 119.320 231.811,121.092 234.368,122.867 236.226 C 123.722 237.120,124.821 238.581,125.311 239.472 C 125.800 240.364,127.190 241.892,128.400 242.870 C 129.610 243.847,131.230 245.479,132.000 246.496 C 132.770 247.513,134.149 248.887,135.064 249.549 C 135.980 250.211,137.240 251.409,137.864 252.210 C 138.489 253.011,141.380 256.079,144.289 259.027 C 147.198 261.976,149.950 265.118,150.405 266.010 C 150.861 266.903,151.991 268.362,152.917 269.253 C 154.453 270.732,157.199 275.396,160.774 282.600 C 161.430 283.920,162.533 287.070,163.227 289.600 C 163.920 292.130,165.205 295.882,166.082 297.938 C 167.204 300.568,167.704 302.347,167.772 303.945 C 167.882 306.567,168.635 308.395,169.856 309.003 C 170.891 309.519,169.366 313.018,168.208 312.784 C 166.579 312.455,164.361 314.545,164.158 316.600 C 163.485 323.418,164.629 330.701,166.398 330.851 C 168.175 331.002,168.742 331.117,169.246 331.432 C 169.808 331.782,170.593 332.012,171.500 332.090 C 171.775 332.114,172.000 332.379,172.000 332.679 C 172.000 333.078,172.295 333.010,173.100 332.426 C 175.204 330.900,188.287 330.646,189.254 332.113 C 189.394 332.325,190.146 332.424,190.926 332.333 C 191.746 332.237,192.246 332.325,192.112 332.542 C 191.971 332.771,192.879 332.811,194.440 332.647 C 196.007 332.481,196.789 332.517,196.457 332.738 C 196.067 332.998,196.219 333.100,197.000 333.100 C 197.781 333.100,197.933 332.998,197.543 332.738 C 197.211 332.517,197.993 332.481,199.560 332.647 C 201.608 332.863,202.055 332.813,201.798 332.397 C 201.605 332.084,201.635 331.974,201.872 332.121 C 202.629 332.589,210.560 332.521,210.718 332.046 C 210.801 331.798,211.029 331.694,211.226 331.816 C 211.423 331.938,211.902 331.869,212.292 331.665 C 214.012 330.760,222.872 329.853,231.000 329.749 C 240.510 329.626,241.045 329.588,241.123 329.014 C 242.096 321.832,241.530 314.400,240.010 314.400 C 239.590 314.400,239.128 314.208,238.983 313.973 C 238.838 313.738,238.470 313.641,238.166 313.758 C 237.596 313.976,235.229 312.911,234.706 312.200 C 234.519 311.945,234.410 311.964,234.406 312.254 C 234.393 313.260,231.578 314.010,226.336 314.406 C 214.918 315.266,210.987 315.665,210.651 315.994 C 210.459 316.183,210.072 316.249,209.791 316.141 C 209.510 316.033,208.329 316.228,207.168 316.573 C 203.429 317.683,193.085 317.279,191.375 315.956 C 190.886 315.577,188.519 315.333,181.896 314.979 C 176.258 314.678,176.517 314.713,174.918 314.050 C 172.816 313.178,171.790 308.400,173.704 308.400 C 174.886 308.400,178.409 304.899,179.138 303.000 C 180.873 298.480,180.876 298.395,180.677 258.600 C 180.469 216.813,180.479 216.981,178.018 211.639 C 176.422 208.173,174.801 201.741,174.799 198.856 C 174.797 197.044,173.523 194.882,172.312 194.636 C 169.407 194.045,165.572 194.109,162.611 194.798 L 159.444 195.534 156.245 194.502 C 154.213 193.846,152.566 193.020,151.729 192.235 L 150.412 191.000 151.260 187.682 C 152.562 182.586,156.449 180.213,162.759 180.661 C 167.165 180.974,170.195 179.667,172.121 176.623 C 174.397 173.024,174.345 172.246,171.586 168.600 C 170.575 167.263,169.592 165.142,168.622 162.200 C 167.805 159.719,166.683 157.189,166.051 156.400 C 164.218 154.110,164.000 153.414,164.000 149.840 L 164.000 146.427 165.700 144.426 C 166.635 143.326,167.940 141.665,168.600 140.735 C 170.598 137.922,171.625 137.537,175.200 138.266 C 180.904 139.430,182.191 142.279,182.215 153.800 C 182.244 167.656,182.610 168.957,186.200 167.970 C 192.005 166.374,193.571 163.372,193.796 153.410 C 194.070 141.293,194.779 139.628,200.999 136.496 L 203.397 135.288 205.599 136.409 C 211.524 139.426,213.375 145.489,209.800 150.173 C 209.030 151.182,208.400 152.154,208.400 152.335 C 208.400 152.515,207.795 154.203,207.056 156.087 L 205.711 159.511 207.083 162.110 C 209.362 166.425,214.473 169.332,216.369 167.390 C 218.294 165.420,220.276 159.528,219.665 157.592 C 218.004 152.324,219.151 146.055,222.440 142.429 C 223.552 141.203,224.894 139.720,225.423 139.134 C 227.447 136.887,230.571 137.502,234.208 140.861 C 239.080 145.362,239.494 154.470,235.029 158.935 C 231.355 162.609,230.314 170.607,233.167 173.250 L 234.300 174.300 237.650 173.725 C 240.328 173.265,241.241 172.921,242.200 172.010 C 247.856 166.637,257.962 167.890,260.809 174.317 C 262.451 178.022,262.372 178.466,259.542 181.446 C 258.144 182.919,256.452 184.707,255.781 185.420 C 253.714 187.620,247.763 188.607,243.438 187.466 C 240.000 186.560,236.543 188.754,235.632 192.420 C 235.388 193.399,234.754 195.730,234.222 197.600 C 232.838 202.466,232.891 201.882,231.800 224.215 C 229.364 274.057,230.950 309.116,235.611 308.461 C 237.569 308.186,238.216 306.719,239.406 299.849 C 239.745 297.895,240.361 295.465,240.776 294.449 C 241.191 293.432,242.005 290.800,242.586 288.600 C 244.169 282.601,245.448 279.525,247.525 276.727 C 248.556 275.337,249.895 273.161,250.500 271.891 C 251.105 270.621,252.300 268.821,253.156 267.891 C 254.637 266.282,258.400 260.952,258.400 260.464 C 258.400 260.337,259.298 259.377,260.396 258.330 C 261.493 257.283,262.922 255.565,263.572 254.513 C 264.221 253.461,265.588 251.904,266.609 251.053 C 267.630 250.202,268.995 248.645,269.642 247.593 C 270.289 246.541,271.608 245.035,272.572 244.245 C 273.536 243.455,274.719 241.994,275.200 241.000 C 275.681 240.006,276.876 238.536,277.855 237.733 C 278.834 236.931,280.272 235.178,281.051 233.838 C 281.831 232.497,283.061 230.770,283.785 230.000 C 285.559 228.115,287.824 224.795,288.595 222.949 C 288.942 222.119,289.931 220.527,290.792 219.411 C 291.653 218.294,292.998 215.855,293.780 213.990 C 294.563 212.126,295.517 210.129,295.901 209.554 C 296.286 208.978,297.067 207.808,297.637 206.954 C 298.208 206.099,299.526 202.841,300.566 199.714 C 301.606 196.586,302.886 193.395,303.410 192.623 C 304.969 190.326,307.509 179.014,308.401 170.400 C 308.572 168.750,309.120 164.970,309.620 162.000 C 310.918 154.279,310.839 144.392,309.418 136.800 C 308.862 133.830,308.405 130.860,308.401 130.200 C 308.386 127.283,305.197 115.415,303.834 113.200 C 303.089 111.990,301.553 109.110,300.421 106.800 C 299.067 104.038,297.698 101.915,296.424 100.600 C 295.358 99.500,294.213 98.060,293.880 97.400 C 293.546 96.740,292.506 95.480,291.567 94.600 C 290.628 93.720,288.916 92.066,287.763 90.925 C 286.610 89.784,284.947 88.483,284.067 88.034 C 283.187 87.585,281.471 86.346,280.252 85.280 C 277.992 83.302,274.546 81.295,271.951 80.446 C 271.155 80.185,269.347 79.275,267.934 78.423 C 264.777 76.518,261.270 75.336,257.255 74.823 C 255.575 74.608,251.023 73.625,247.140 72.638 C 238.050 70.326,219.546 68.961,211.200 69.987 M149.650 113.059 C 151.645 115.342,151.343 116.626,148.390 118.412 C 145.566 120.121,144.861 120.781,143.791 122.716 C 143.219 123.752,141.986 125.164,141.053 125.854 C 139.630 126.905,139.049 127.805,137.460 131.411 C 136.418 133.778,134.965 136.415,134.231 137.272 C 132.650 139.120,131.889 141.654,131.010 148.000 C 128.979 162.658,126.146 171.503,123.054 172.840 C 118.654 174.742,118.862 156.048,123.359 145.355 C 123.925 144.010,124.565 141.670,124.782 140.155 C 125.405 135.800,126.262 133.470,127.943 131.558 C 128.793 130.591,130.047 128.695,130.728 127.344 C 131.785 125.249,135.471 120.973,141.469 114.882 C 144.522 111.781,147.879 111.033,149.650 113.059 M227.615 151.964 C 227.159 153.065,227.167 153.339,227.675 153.846 C 228.727 154.898,229.492 153.511,228.739 151.919 L 228.149 150.674 227.615 151.964 M193.886 172.600 L 191.721 174.800 189.161 174.810 C 184.226 174.828,182.085 175.937,180.308 179.392 C 179.858 180.267,178.953 181.652,178.296 182.469 C 176.734 184.413,176.956 185.679,179.794 191.000 C 180.967 193.200,182.237 195.990,182.617 197.200 C 182.997 198.410,183.912 200.300,184.650 201.400 C 186.320 203.886,187.366 208.455,187.994 215.997 C 188.455 221.544,188.604 292.448,188.158 294.226 C 187.801 295.646,188.725 303.494,189.402 304.804 C 190.762 307.433,195.187 308.346,202.674 307.542 C 205.273 307.263,209.560 307.013,212.200 306.986 C 216.873 306.940,217.974 306.722,221.288 305.186 C 223.208 304.297,224.063 298.401,222.997 293.400 C 222.106 289.220,222.117 248.313,223.011 244.920 C 223.857 241.702,223.924 240.531,224.422 220.200 C 225.019 195.824,225.552 191.721,228.560 188.391 C 232.576 183.946,226.192 173.030,220.362 174.374 C 219.393 174.598,216.378 174.785,213.662 174.790 C 208.217 174.801,207.660 174.606,204.946 171.729 C 203.696 170.404,203.681 170.400,199.872 170.400 L 196.051 170.400 193.886 172.600 M129.338 201.700 C 129.873 202.635,130.430 204.120,130.575 205.000 C 131.263 209.168,132.542 211.763,134.223 212.407 C 134.704 212.591,135.851 214.237,136.981 216.364 C 138.343 218.929,139.312 220.251,140.257 220.836 C 140.996 221.292,141.600 221.896,141.600 222.177 C 141.600 222.459,142.145 223.892,142.811 225.361 C 144.144 228.300,144.076 228.682,141.906 230.388 L 140.867 231.205 139.597 230.136 C 138.898 229.548,137.916 228.417,137.414 227.623 C 136.913 226.828,135.786 225.830,134.909 225.404 C 133.269 224.606,131.607 222.552,131.591 221.306 C 131.577 220.134,130.125 217.303,129.067 216.383 C 125.608 213.376,124.400 204.363,127.035 201.231 C 128.322 199.702,128.179 199.672,129.338 201.700 M239.400 339.636 C 238.520 340.669,237.401 341.740,236.914 342.017 C 236.426 342.294,236.104 342.644,236.197 342.796 C 236.441 343.190,233.581 344.725,232.181 344.951 C 230.722 345.187,227.299 345.359,204.030 346.367 C 199.976 346.542,194.396 346.547,191.630 346.377 C 188.863 346.208,183.810 345.946,180.400 345.795 C 176.991 345.645,173.886 345.353,173.500 345.147 C 173.115 344.941,172.800 344.875,172.800 345.000 C 172.800 345.125,172.395 345.003,171.900 344.728 C 171.405 344.453,170.871 344.222,170.713 344.214 C 170.555 344.206,170.097 343.918,169.695 343.574 C 169.293 343.230,168.703 342.818,168.382 342.659 C 168.062 342.499,167.356 342.114,166.812 341.804 C 165.835 341.245,165.815 341.265,164.879 343.719 C 163.042 348.538,163.939 356.041,166.431 356.692 C 166.854 356.803,167.200 357.063,167.200 357.270 C 167.200 357.478,167.387 357.532,167.615 357.391 C 168.096 357.094,170.859 359.817,171.757 361.472 C 172.093 362.093,172.375 362.394,172.384 362.143 C 172.416 361.238,175.115 360.598,178.800 360.620 C 180.993 360.633,200.531 361.533,203.000 361.734 C 203.440 361.770,206.410 361.653,209.600 361.475 C 212.790 361.296,216.840 361.073,218.600 360.978 C 226.162 360.573,233.657 359.497,234.124 358.751 C 234.548 358.072,234.615 358.070,235.355 358.716 C 235.785 359.092,236.006 359.175,235.845 358.900 C 235.684 358.625,235.734 358.400,235.957 358.400 C 236.179 358.400,236.504 358.644,236.680 358.942 C 237.404 360.169,241.153 360.146,241.412 358.912 C 241.987 356.171,242.537 354.363,242.855 354.166 C 243.248 353.923,242.782 346.177,242.220 343.600 C 242.100 343.050,241.891 341.797,241.756 340.815 C 241.320 337.635,241.170 337.560,239.400 339.636 M171.120 370.428 L 170.119 372.123 171.159 374.168 C 172.126 376.068,173.992 378.383,174.006 377.700 C 174.009 377.535,174.163 377.637,174.346 377.927 C 174.530 378.216,174.932 378.496,175.240 378.548 C 175.548 378.601,176.430 378.843,177.200 379.087 C 177.970 379.331,181.390 379.645,184.800 379.785 C 188.210 379.924,192.710 380.213,194.800 380.427 C 205.496 381.520,223.441 380.608,228.500 378.715 C 229.782 378.235,229.768 378.285,229.030 376.857 C 228.489 375.813,228.326 375.759,225.930 375.843 C 210.474 376.387,182.833 376.148,177.858 375.427 C 176.522 375.233,175.200 373.960,175.200 372.867 C 175.200 372.446,174.507 371.343,173.660 370.417 L 172.121 368.733 171.120 370.428 M233.061 371.947 C 232.401 372.207,232.389 372.293,232.942 372.752 C 233.754 373.426,234.955 373.174,235.125 372.295 C 235.267 371.555,234.420 371.412,233.061 371.947 M200.800 396.132 C 199.054 396.586,198.996 396.651,198.877 398.300 L 198.754 400.000 206.800 400.000 L 214.846 400.000 214.723 398.300 C 214.568 396.151,213.103 395.664,206.800 395.664 C 204.490 395.664,201.790 395.875,200.800 396.132 " stroke="none" fill="#ecb13c" fill-rule="evenodd"></path><path id="path1" d="M308.839 27.753 C 308.447 28.225,308.459 28.562,308.898 29.398 L 309.449 30.450 309.945 29.360 C 310.578 27.973,309.707 26.707,308.839 27.753 M202.788 34.028 C 202.416 34.927,202.349 36.633,202.540 40.393 C 202.958 48.668,203.545 48.502,203.575 40.100 C 203.602 32.328,203.576 32.127,202.788 34.028 M303.195 36.900 C 303.192 38.275,303.081 39.805,302.948 40.300 C 302.815 40.795,302.882 41.200,303.095 41.200 C 303.309 41.200,303.587 39.985,303.713 38.500 C 303.839 37.015,304.064 35.485,304.214 35.100 C 304.404 34.611,304.292 34.400,303.843 34.400 C 303.322 34.400,303.199 34.873,303.195 36.900 M295.838 45.114 C 294.629 47.116,294.736 47.863,296.319 48.448 C 297.742 48.975,298.661 47.248,298.047 45.199 C 297.391 43.008,297.117 42.997,295.838 45.114 M83.283 46.496 C 82.659 46.796,82.455 47.138,82.643 47.568 C 82.795 47.916,83.092 49.100,83.304 50.200 C 83.960 53.601,84.217 54.000,85.759 54.000 C 88.144 54.000,88.431 53.692,87.195 52.457 C 86.391 51.652,86.018 50.775,85.804 49.179 C 85.391 46.111,84.983 45.677,83.283 46.496 M289.820 51.738 C 288.637 53.290,288.566 53.888,289.423 55.111 C 290.987 57.344,293.584 54.050,292.159 51.639 C 291.242 50.087,291.074 50.094,289.820 51.738 M90.050 55.340 C 88.304 57.443,89.840 62.356,91.899 61.254 C 93.086 60.619,93.419 59.305,92.617 58.419 C 92.256 58.020,91.782 57.043,91.562 56.247 C 91.135 54.700,90.765 54.478,90.050 55.340 M283.789 58.668 C 283.216 59.241,283.275 59.619,284.107 60.695 C 284.403 61.077,284.757 61.000,285.662 60.356 C 286.546 59.727,286.728 59.395,286.403 59.004 C 285.722 58.183,284.439 58.018,283.789 58.668 M96.121 63.279 C 94.502 64.061,94.334 65.635,95.643 67.739 C 97.238 70.301,98.475 70.126,99.049 67.257 C 99.252 66.241,97.568 62.517,97.046 62.827 C 97.021 62.842,96.604 63.045,96.121 63.279 M101.729 70.678 C 100.052 71.005,99.798 71.856,100.886 73.503 C 101.430 74.326,102.105 75.720,102.386 76.600 C 103.072 78.748,103.265 78.899,104.930 78.587 C 106.288 78.332,106.335 78.272,105.806 77.459 C 105.499 76.986,105.126 75.610,104.978 74.400 C 104.689 72.042,103.887 70.366,103.091 70.454 C 102.821 70.484,102.208 70.585,101.729 70.678 M370.203 103.167 C 369.474 103.452,369.515 103.536,370.686 104.141 C 371.882 104.759,372.061 104.758,373.408 104.116 C 375.505 103.116,372.563 102.246,370.203 103.167 M353.600 108.385 C 347.584 108.878,346.629 109.688,350.764 110.793 C 354.238 111.723,366.632 110.007,364.552 108.885 C 363.379 108.252,358.147 108.013,353.600 108.385 M340.215 115.183 C 339.382 116.103,340.457 116.649,341.986 116.083 L 342.888 115.750 341.888 115.095 C 340.951 114.481,340.846 114.486,340.215 115.183 M200.999 136.496 C 194.779 139.628,194.070 141.293,193.796 153.410 C 193.571 163.372,192.005 166.374,186.200 167.970 C 182.610 168.957,182.244 167.656,182.215 153.800 C 182.191 142.279,180.904 139.430,175.200 138.266 C 171.625 137.537,170.598 137.922,168.600 140.735 C 167.940 141.665,166.635 143.326,165.700 144.426 L 164.000 146.427 164.000 149.840 C 164.000 153.414,164.218 154.110,166.051 156.400 C 166.683 157.189,167.805 159.719,168.622 162.200 C 169.592 165.142,170.575 167.263,171.586 168.600 C 174.345 172.246,174.397 173.024,172.121 176.623 C 170.195 179.667,167.165 180.974,162.759 180.661 C 156.449 180.213,152.562 182.586,151.260 187.682 L 150.412 191.000 151.729 192.235 C 152.566 193.020,154.213 193.846,156.245 194.502 L 159.444 195.534 162.611 194.798 C 165.572 194.109,169.407 194.045,172.312 194.636 C 173.523 194.882,174.797 197.044,174.799 198.856 C 174.801 201.741,176.422 208.173,178.018 211.639 C 178.932 213.623,179.808 216.297,180.055 217.860 C 180.713 222.023,181.016 295.918,180.386 298.800 C 179.255 303.978,177.405 306.614,173.539 308.559 C 170.847 309.914,174.143 312.401,179.980 313.420 C 187.256 314.690,229.016 313.531,233.426 311.936 C 234.942 311.388,235.597 309.518,234.652 308.435 C 233.956 307.636,233.472 306.123,232.148 300.600 L 231.093 296.200 230.911 271.000 C 230.744 247.965,230.817 243.992,231.764 224.754 C 232.816 203.379,233.001 201.423,234.409 196.804 C 234.846 195.372,235.399 193.399,235.638 192.420 C 236.534 188.758,239.997 186.559,243.438 187.466 C 247.763 188.607,253.714 187.620,255.781 185.420 C 256.452 184.707,258.144 182.919,259.542 181.446 C 262.372 178.466,262.451 178.022,260.809 174.317 C 257.962 167.890,247.856 166.637,242.200 172.010 C 241.241 172.921,240.328 173.265,237.650 173.725 L 234.300 174.300 233.167 173.250 C 230.314 170.607,231.355 162.609,235.029 158.935 C 239.494 154.470,239.080 145.362,234.208 140.861 C 230.571 137.502,227.447 136.887,225.423 139.134 C 224.894 139.720,223.552 141.203,222.440 142.429 C 219.151 146.055,218.004 152.324,219.665 157.592 C 220.276 159.528,218.294 165.420,216.369 167.390 C 214.473 169.332,209.362 166.425,207.083 162.110 L 205.711 159.511 207.056 156.087 C 207.795 154.203,208.400 152.515,208.400 152.335 C 208.400 152.154,209.030 151.182,209.800 150.173 C 213.375 145.489,211.524 139.426,205.599 136.409 L 203.397 135.288 200.999 136.496 M37.701 139.213 C 35.022 139.551,32.066 140.600,32.519 141.052 C 32.626 141.159,34.487 141.400,36.656 141.587 C 38.825 141.775,42.940 142.156,45.800 142.433 C 53.822 143.211,72.497 142.049,69.400 140.965 C 66.444 139.930,42.505 138.606,37.701 139.213 M75.215 145.536 C 74.460 145.941,73.780 146.459,73.704 146.688 C 73.531 147.207,77.514 147.737,78.927 147.383 L 79.966 147.122 79.108 145.961 C 78.113 144.615,77.132 144.508,75.215 145.536 M228.798 153.802 C 227.828 154.971,226.940 153.593,227.615 151.964 L 228.149 150.674 228.739 151.919 C 229.230 152.956,229.240 153.270,228.798 153.802 M204.946 171.729 C 207.660 174.606,208.217 174.801,213.662 174.790 C 216.378 174.785,219.393 174.598,220.362 174.374 C 223.569 173.635,226.372 175.933,229.060 181.506 C 230.716 184.939,230.632 186.099,228.560 188.391 C 225.552 191.721,225.019 195.824,224.422 220.200 C 223.924 240.531,223.857 241.702,223.011 244.920 C 222.117 248.313,222.106 289.220,222.997 293.400 C 224.063 298.401,223.208 304.297,221.288 305.186 C 217.974 306.722,216.873 306.940,212.200 306.986 C 209.560 307.013,205.273 307.263,202.674 307.542 C 195.187 308.346,190.762 307.433,189.402 304.804 C 188.725 303.494,187.801 295.646,188.158 294.226 C 188.604 292.448,188.455 221.544,187.994 215.997 C 187.366 208.455,186.320 203.886,184.650 201.400 C 183.912 200.300,182.997 198.410,182.617 197.200 C 182.237 195.990,180.967 193.200,179.794 191.000 C 176.956 185.679,176.734 184.413,178.296 182.469 C 178.953 181.652,179.858 180.267,180.308 179.392 C 182.085 175.937,184.226 174.828,189.161 174.810 L 191.721 174.800 193.886 172.600 L 196.051 170.400 199.872 170.400 C 203.681 170.400,203.696 170.404,204.946 171.729 M333.421 202.455 L 332.346 203.300 333.448 204.450 C 334.054 205.083,334.741 205.601,334.975 205.602 C 336.972 205.613,338.508 206.542,339.231 208.178 C 340.144 210.241,342.322 211.346,347.392 212.315 C 351.044 213.013,351.438 213.237,352.190 215.039 C 352.783 216.458,358.741 218.800,361.756 218.800 C 363.293 218.800,363.794 219.270,364.180 221.072 C 364.931 224.588,374.225 225.831,374.725 222.483 C 374.883 221.420,373.427 220.630,370.212 220.036 C 367.364 219.510,364.800 217.882,364.800 216.600 C 364.800 215.496,361.192 213.752,357.750 213.192 C 355.192 212.775,354.160 212.037,353.791 210.359 C 353.651 209.721,353.506 209.199,353.468 209.198 C 353.431 209.197,352.140 208.742,350.600 208.187 C 349.060 207.632,346.832 207.009,345.649 206.802 C 343.090 206.354,341.600 205.472,341.600 204.405 C 341.600 203.464,340.728 202.960,338.151 202.410 C 337.078 202.181,335.817 201.907,335.348 201.801 C 334.845 201.688,334.057 201.955,333.421 202.455 M82.129 233.669 C 79.319 234.777,80.379 236.400,83.912 236.400 C 84.798 236.400,87.600 235.003,87.600 234.561 C 87.600 233.201,84.569 232.706,82.129 233.669 M74.600 239.173 C 71.785 239.417,69.032 240.496,69.285 241.255 C 69.689 242.467,71.543 242.982,73.489 242.423 C 74.540 242.121,76.076 241.793,76.903 241.695 C 77.729 241.596,78.499 241.363,78.615 241.176 C 78.955 240.626,78.354 238.794,77.857 238.865 C 77.605 238.900,76.140 239.039,74.600 239.173 M63.600 244.991 C 62.610 245.271,61.080 245.657,60.200 245.850 C 58.707 246.177,58.592 246.302,58.474 247.728 C 58.304 249.800,58.954 250.580,60.182 249.775 C 60.682 249.447,62.241 248.979,63.646 248.733 C 67.530 248.056,68.506 246.960,66.886 245.100 C 66.191 244.302,66.057 244.298,63.600 244.991 M52.291 252.305 L 51.192 253.453 52.122 254.326 C 52.633 254.807,53.260 255.200,53.515 255.200 C 54.195 255.200,57.600 253.490,57.600 253.149 C 57.600 252.609,56.349 251.600,55.671 251.595 C 55.302 251.592,54.638 251.492,54.196 251.373 C 53.647 251.225,53.041 251.522,52.291 252.305 M303.051 254.900 C 303.408 257.230,303.600 257.288,303.600 255.067 C 303.600 254.040,303.418 253.200,303.195 253.200 C 302.945 253.200,302.890 253.849,303.051 254.900 M304.667 258.667 C 304.162 259.171,304.403 259.504,305.647 260.019 C 306.332 260.303,307.496 261.157,308.234 261.916 C 309.867 263.598,310.627 263.405,310.998 261.214 C 311.398 258.842,310.867 258.400,307.618 258.400 C 306.141 258.400,304.813 258.520,304.667 258.667 M314.205 263.930 C 310.973 264.193,310.810 265.359,313.726 267.367 C 315.946 268.896,316.879 268.947,317.611 267.579 C 318.673 265.595,316.914 263.709,314.205 263.930 M320.718 270.059 C 318.286 270.948,319.937 274.411,322.785 274.394 C 325.813 274.376,326.055 272.192,323.239 270.303 C 322.066 269.515,322.175 269.526,320.718 270.059 M327.261 277.198 C 326.714 278.765,327.682 279.409,329.587 278.744 L 330.854 278.303 329.527 277.168 C 327.859 275.741,327.768 275.742,327.261 277.198 M228.600 331.657 C 224.677 331.909,219.857 333.033,217.527 334.238 C 214.125 335.997,200.522 336.532,184.320 335.543 C 173.922 334.909,171.998 335.584,172.001 339.862 C 172.003 341.681,174.484 343.308,178.315 344.002 C 181.186 344.522,198.161 345.301,200.400 345.016 C 201.390 344.890,206.880 344.615,212.601 344.406 C 229.514 343.787,233.976 342.387,235.976 337.074 C 237.672 332.569,235.800 331.194,228.600 331.657 M226.000 361.632 C 225.010 361.814,222.040 362.244,219.400 362.588 C 216.760 362.931,213.160 363.506,211.400 363.865 C 207.002 364.763,199.931 364.676,192.400 363.632 C 176.932 361.488,173.261 362.255,174.232 367.430 C 174.644 369.625,175.673 370.479,177.804 370.392 C 177.917 370.387,179.415 371.117,181.133 372.014 C 186.187 374.651,188.447 374.884,207.141 374.701 C 223.709 374.538,224.447 374.463,227.165 372.674 C 227.954 372.155,229.965 371.318,231.634 370.815 L 234.668 369.901 235.386 367.789 C 236.107 365.668,236.021 363.535,235.150 361.907 C 234.730 361.122,229.603 360.968,226.000 361.632 M225.800 380.594 C 224.920 380.900,222.580 381.439,220.600 381.792 C 218.620 382.146,216.010 382.612,214.800 382.830 C 210.451 383.610,194.842 382.753,188.274 381.373 C 182.185 380.094,180.092 382.408,183.098 387.098 C 185.476 390.807,186.108 391.078,195.572 392.460 C 204.958 393.830,209.608 393.826,218.295 392.437 C 223.935 391.535,223.894 391.552,224.662 389.712 C 225.071 388.734,225.702 388.126,226.795 387.661 C 229.140 386.662,229.821 384.965,229.004 382.155 C 228.327 379.825,228.197 379.761,225.800 380.594 " stroke="none" fill="#6f5f4a" fill-rule="evenodd"></path><path id="path2" d="M0.000 200.000 L 0.000 400.000 95.200 400.000 L 190.400 400.000 190.400 398.449 C 190.400 396.910,190.380 396.890,187.900 395.983 C 183.754 394.466,181.791 393.330,180.565 391.743 C 179.924 390.912,178.638 389.400,177.706 388.382 C 176.775 387.364,175.636 385.678,175.175 384.637 C 174.555 383.234,173.852 382.446,172.469 381.600 C 169.363 379.702,168.415 378.803,167.393 376.785 C 166.855 375.725,166.231 374.742,166.005 374.603 C 164.703 373.798,164.425 372.149,165.358 370.761 C 167.983 366.856,167.931 364.643,165.157 362.174 C 160.638 358.152,156.813 348.121,158.874 345.697 C 160.459 343.832,162.173 340.326,162.813 337.640 L 163.523 334.660 160.885 329.430 C 156.551 320.839,157.137 317.440,164.250 309.911 C 168.291 305.633,168.550 303.532,165.811 297.260 C 165.077 295.577,163.911 292.130,163.221 289.600 C 162.530 287.070,161.430 283.920,160.774 282.600 C 157.199 275.396,154.453 270.732,152.917 269.253 C 151.991 268.362,150.861 266.903,150.405 266.010 C 149.950 265.118,147.198 261.976,144.289 259.027 C 141.380 256.079,138.489 253.011,137.864 252.210 C 137.240 251.409,135.980 250.211,135.064 249.549 C 134.149 248.887,132.770 247.513,132.000 246.496 C 131.230 245.479,129.610 243.847,128.400 242.870 C 127.190 241.892,125.800 240.364,125.311 239.472 C 124.821 238.581,123.722 237.120,122.867 236.226 C 121.092 234.368,119.320 231.811,117.999 229.200 C 117.498 228.210,116.258 226.484,115.244 225.365 C 114.114 224.118,113.117 222.493,112.670 221.165 C 112.268 219.974,111.172 217.650,110.234 216.000 C 109.297 214.350,107.976 211.200,107.299 209.000 C 105.269 202.396,104.102 198.785,102.811 195.117 C 98.745 183.564,99.206 150.812,103.574 140.858 C 104.216 139.396,105.306 136.130,105.997 133.600 C 107.642 127.577,108.385 125.555,109.274 124.682 C 110.107 123.864,111.435 121.288,112.815 117.815 C 113.350 116.467,114.589 114.517,115.662 113.331 C 116.707 112.177,117.865 110.641,118.235 109.917 C 118.606 109.192,120.234 107.207,121.854 105.504 C 123.474 103.802,124.800 102.147,124.800 101.828 C 124.800 101.508,125.835 100.444,127.100 99.463 C 128.365 98.482,130.030 97.017,130.800 96.206 C 131.570 95.396,133.460 94.000,135.000 93.104 C 136.540 92.208,138.430 90.915,139.200 90.229 C 139.970 89.544,142.310 88.101,144.400 87.022 C 146.490 85.942,148.908 84.547,149.774 83.920 C 150.640 83.293,152.890 82.307,154.774 81.729 C 156.658 81.151,158.380 80.549,158.600 80.391 C 158.820 80.233,159.720 79.881,160.600 79.608 C 161.480 79.335,162.942 78.687,163.850 78.168 C 164.757 77.649,166.827 76.870,168.450 76.436 C 171.237 75.691,172.950 75.404,180.600 74.406 C 182.360 74.176,185.893 73.456,188.452 72.805 C 204.127 68.816,231.789 68.734,247.115 72.631 C 251.012 73.622,255.575 74.608,257.255 74.823 C 261.270 75.336,264.777 76.518,267.934 78.423 C 269.347 79.275,271.155 80.185,271.951 80.446 C 274.546 81.295,277.992 83.302,280.252 85.280 C 281.471 86.346,283.187 87.585,284.067 88.034 C 284.947 88.483,286.610 89.784,287.763 90.925 C 288.916 92.066,290.628 93.720,291.567 94.600 C 292.506 95.480,293.546 96.740,293.880 97.400 C 294.213 98.060,295.358 99.500,296.424 100.600 C 297.698 101.915,299.067 104.038,300.421 106.800 C 301.553 109.110,303.089 111.990,303.834 113.200 C 305.197 115.415,308.386 127.283,308.401 130.200 C 308.405 130.860,308.862 133.830,309.418 136.800 C 310.839 144.392,310.918 154.279,309.620 162.000 C 309.120 164.970,308.572 168.750,308.401 170.400 C 307.509 179.014,304.969 190.326,303.410 192.623 C 302.886 193.395,301.606 196.586,300.566 199.714 C 299.526 202.841,298.208 206.099,297.637 206.954 C 297.067 207.808,296.286 208.978,295.901 209.554 C 295.517 210.129,294.563 212.126,293.780 213.990 C 292.998 215.855,291.653 218.294,290.792 219.411 C 289.931 220.527,288.942 222.119,288.595 222.949 C 287.824 224.795,285.559 228.115,283.785 230.000 C 283.061 230.770,281.831 232.497,281.051 233.838 C 280.272 235.178,278.834 236.931,277.855 237.733 C 276.876 238.536,275.681 240.006,275.200 241.000 C 274.719 241.994,273.536 243.455,272.572 244.245 C 271.608 245.035,270.289 246.541,269.642 247.593 C 268.995 248.645,267.630 250.202,266.609 251.053 C 265.588 251.904,264.221 253.461,263.572 254.513 C 262.922 255.565,261.493 257.283,260.396 258.330 C 259.298 259.377,258.400 260.337,258.400 260.464 C 258.400 260.952,254.637 266.282,253.156 267.891 C 252.300 268.821,251.105 270.621,250.500 271.891 C 249.895 273.161,248.556 275.337,247.525 276.727 C 245.448 279.525,244.169 282.601,242.586 288.600 C 242.005 290.800,241.202 293.410,240.801 294.400 C 240.158 295.987,239.624 298.370,239.063 302.146 C 238.790 303.990,240.600 309.222,242.132 311.015 C 244.536 313.830,246.615 320.731,245.743 323.004 C 245.641 323.270,245.038 325.988,244.403 329.044 L 243.248 334.600 246.124 340.400 L 249.000 346.200 249.135 350.017 L 249.270 353.833 247.398 356.617 C 246.369 358.148,245.254 359.923,244.920 360.563 C 244.587 361.202,243.526 362.568,242.563 363.598 C 241.115 365.147,240.634 366.087,239.787 369.035 C 238.605 373.147,236.942 376.904,235.235 379.315 C 234.518 380.330,233.706 382.339,233.196 384.365 C 231.750 390.114,230.945 391.224,225.420 395.096 C 224.089 396.028,222.775 396.793,222.500 396.796 C 222.184 396.798,222.000 397.389,222.000 398.400 L 222.000 400.000 311.000 400.000 L 400.000 400.000 400.000 200.000 L 400.000 0.000 303.351 -0.000 L 206.702 -0.000 206.947 7.700 C 208.116 44.530,207.845 49.832,204.683 52.083 C 202.530 53.616,196.849 50.853,195.276 47.508 C 193.411 43.542,192.925 16.479,194.558 7.600 C 194.903 5.730,195.188 3.255,195.192 2.100 L 195.200 0.000 97.600 0.000 L 0.000 0.000 0.000 200.000 M312.668 24.863 C 314.688 25.823,315.273 27.663,314.382 30.252 C 313.208 33.664,311.582 36.346,310.151 37.230 C 309.326 37.740,308.486 38.812,307.885 40.120 C 306.883 42.304,305.912 43.389,303.609 44.905 C 302.645 45.538,301.991 46.432,301.481 47.810 C 300.664 50.016,299.560 51.385,297.899 52.249 C 297.171 52.628,296.413 53.672,295.659 55.333 C 294.933 56.936,294.081 58.127,293.306 58.623 C 292.639 59.050,291.481 60.210,290.733 61.200 C 286.181 67.227,280.605 66.929,279.740 60.613 C 279.417 58.257,282.265 54.000,284.165 54.000 C 284.416 54.000,285.113 52.872,285.714 51.494 C 286.414 49.886,287.608 48.172,289.044 46.713 C 290.275 45.463,291.578 43.909,291.941 43.260 C 293.488 40.492,294.903 38.745,296.323 37.849 C 297.318 37.220,298.283 36.059,299.128 34.474 C 300.327 32.224,301.200 31.285,303.759 29.493 C 304.314 29.104,305.112 28.009,305.533 27.059 C 306.881 24.012,309.305 23.266,312.668 24.863 M80.600 41.182 C 81.040 41.385,82.216 41.658,83.213 41.787 C 86.060 42.157,87.479 43.260,88.772 46.106 C 89.552 47.822,90.484 49.076,91.761 50.127 C 92.996 51.143,94.085 52.583,95.014 54.428 C 95.930 56.246,97.246 57.996,98.836 59.509 C 100.706 61.289,101.428 62.319,101.991 64.009 C 102.599 65.835,102.996 66.356,104.377 67.139 C 106.303 68.231,107.095 69.315,108.039 72.149 C 108.585 73.787,109.004 74.338,110.124 74.885 C 113.328 76.453,113.778 78.933,111.623 83.154 C 110.387 85.575,109.444 86.225,108.540 85.277 C 107.630 84.324,105.802 83.383,104.184 83.035 C 101.986 82.562,100.389 81.278,99.525 79.289 C 98.498 76.926,96.930 74.800,96.215 74.800 C 95.007 74.800,91.607 69.439,91.594 67.513 C 91.586 66.292,91.237 65.833,89.732 65.062 C 88.170 64.262,87.051 62.736,86.379 60.490 C 85.946 59.044,85.553 58.611,83.834 57.690 C 82.058 56.738,81.618 56.233,80.363 53.706 C 79.424 51.816,78.265 50.230,77.023 49.136 C 75.262 47.587,75.138 47.355,75.356 46.031 C 76.105 41.502,77.542 39.162,78.944 40.187 C 79.415 40.531,80.160 40.979,80.600 41.182 M376.992 99.461 C 382.828 100.261,382.852 105.089,377.034 107.953 C 375.586 108.667,374.400 109.395,374.400 109.572 C 374.400 111.040,368.762 113.050,362.562 113.794 C 356.578 114.511,353.281 115.379,352.000 116.575 C 347.608 120.674,338.234 121.009,334.080 117.214 C 332.492 115.763,332.545 115.621,336.064 111.962 C 340.294 107.562,342.900 106.274,348.941 105.595 C 356.802 104.712,359.574 103.976,361.007 102.392 C 363.273 99.889,370.476 98.568,376.992 99.461 M144.489 112.830 C 143.109 113.674,141.749 114.597,141.469 114.882 C 135.471 120.973,131.785 125.249,130.728 127.344 C 130.047 128.695,128.793 130.591,127.943 131.558 C 126.262 133.470,125.405 135.800,124.782 140.155 C 124.565 141.670,123.925 144.010,123.359 145.355 C 118.862 156.048,118.654 174.742,123.054 172.840 C 126.146 171.503,128.979 162.658,131.010 148.000 C 131.889 141.654,132.650 139.120,134.231 137.272 C 134.965 136.415,136.418 133.778,137.460 131.411 C 139.049 127.805,139.630 126.905,141.053 125.854 C 141.986 125.164,143.219 123.752,143.791 122.716 C 144.861 120.781,145.566 120.121,148.390 118.412 C 151.343 116.626,151.645 115.342,149.650 113.059 C 148.037 111.214,147.195 111.177,144.489 112.830 M35.335 131.774 C 38.385 132.396,40.591 133.083,41.535 133.703 C 44.027 135.341,49.798 136.053,66.688 136.803 C 81.424 137.458,84.113 138.522,86.619 144.686 C 87.934 147.923,86.830 149.377,82.126 150.602 C 76.567 152.050,62.004 150.579,56.663 148.030 C 53.910 146.716,49.174 145.822,42.800 145.412 C 27.401 144.422,26.689 144.303,23.319 142.159 C 21.083 140.736,20.439 139.788,19.460 136.483 L 18.833 134.367 20.391 132.809 C 21.532 131.668,22.357 131.209,23.474 131.093 C 27.483 130.677,30.923 130.874,35.335 131.774 M337.964 198.819 C 341.897 199.312,343.907 200.233,345.572 202.305 C 346.554 203.527,347.225 203.917,349.092 204.351 C 354.100 205.514,358.400 207.859,358.400 209.426 C 358.400 209.733,359.138 210.149,360.100 210.383 C 366.510 211.944,367.642 212.538,370.242 215.711 C 370.710 216.282,371.864 216.948,372.840 217.211 C 380.868 219.373,384.809 227.479,379.589 231.095 C 378.690 231.718,377.979 231.916,377.249 231.746 C 375.338 231.304,372.731 230.022,371.445 228.893 C 370.646 228.192,368.442 227.209,365.489 226.238 C 361.329 224.870,360.707 224.544,359.969 223.350 C 359.226 222.147,358.647 221.849,354.547 220.558 C 349.984 219.121,347.872 217.888,347.394 216.382 C 347.258 215.952,346.933 215.600,346.673 215.601 C 343.613 215.607,335.951 212.007,335.114 210.170 C 334.862 209.618,334.081 209.031,333.241 208.762 C 327.937 207.066,327.526 200.796,332.600 199.001 C 334.571 198.304,334.008 198.323,337.964 198.819 M127.035 201.231 C 124.400 204.363,125.608 213.376,129.067 216.383 C 130.125 217.303,131.577 220.134,131.591 221.306 C 131.607 222.552,133.269 224.606,134.909 225.404 C 135.786 225.830,136.913 226.828,137.414 227.623 C 137.916 228.417,138.898 229.548,139.597 230.136 L 140.867 231.205 141.906 230.388 C 144.076 228.682,144.144 228.300,142.811 225.361 C 142.145 223.892,141.600 222.459,141.600 222.177 C 141.600 221.896,140.996 221.292,140.257 220.836 C 139.312 220.251,138.343 218.929,136.981 216.364 C 135.851 214.237,134.704 212.591,134.223 212.407 C 132.542 211.763,131.263 209.168,130.575 205.000 C 130.346 203.616,128.642 200.000,128.219 200.000 C 128.138 200.000,127.605 200.554,127.035 201.231 M92.138 229.962 C 93.452 234.186,93.420 234.830,91.822 236.458 C 90.332 237.976,87.603 239.459,85.545 239.871 C 84.811 240.018,83.857 240.723,83.075 241.697 C 81.868 243.200,79.444 244.786,78.316 244.812 C 76.716 244.848,72.383 247.100,71.526 248.341 C 70.474 249.864,69.536 250.456,66.366 251.601 C 64.093 252.422,63.451 252.906,61.924 254.949 C 59.548 258.127,51.877 259.591,49.238 257.371 C 46.010 254.655,47.081 250.747,51.692 248.417 C 53.452 247.528,54.379 246.777,54.800 245.899 C 55.593 244.246,56.840 243.388,60.113 242.245 C 61.916 241.615,63.298 240.810,64.235 239.845 C 65.934 238.096,67.854 237.072,70.955 236.262 C 73.311 235.647,74.800 234.683,74.800 233.774 C 74.800 232.104,79.582 230.056,85.503 229.190 C 87.270 228.932,89.229 228.400,89.858 228.009 C 91.225 227.159,91.282 227.207,92.138 229.962 M305.123 250.010 C 305.851 250.454,306.751 251.371,307.123 252.048 C 308.276 254.146,309.229 255.200,309.970 255.200 C 311.142 255.200,313.242 256.894,314.186 258.600 C 314.878 259.850,315.501 260.359,317.036 260.927 C 319.266 261.752,320.923 263.166,321.614 264.834 C 321.874 265.461,322.472 266.088,322.943 266.229 C 324.912 266.815,329.534 270.093,331.329 272.175 C 332.389 273.406,333.962 274.772,334.823 275.212 C 339.513 277.604,337.754 282.191,331.967 282.660 C 327.296 283.039,325.082 282.104,323.553 279.106 C 323.048 278.118,322.420 277.524,321.695 277.349 C 319.714 276.872,316.725 275.162,314.847 273.430 C 313.831 272.493,311.882 270.976,310.515 270.059 C 309.149 269.142,307.709 267.912,307.315 267.327 C 306.144 265.586,304.059 263.665,302.575 262.961 C 300.883 262.158,299.982 260.927,298.850 257.867 C 298.375 256.585,297.716 255.011,297.385 254.371 C 295.928 251.553,302.022 248.119,305.123 250.010 " stroke="none" fill="#fbfbfb" fill-rule="evenodd"></path><path id="path3" d="M202.800 1.551 C 202.800 2.404,202.514 3.799,202.165 4.651 C 201.121 7.199,198.475 12.515,197.611 13.800 C 196.578 15.338,196.338 39.950,197.342 41.411 C 197.641 41.845,198.204 43.190,198.594 44.400 C 199.400 46.902,199.973 47.671,201.935 48.883 L 203.323 49.741 204.209 48.630 C 205.307 47.252,205.615 42.712,205.119 35.200 C 204.938 32.450,204.621 24.800,204.415 18.200 C 204.209 11.600,203.918 4.805,203.768 3.100 C 203.486 -0.099,202.800 -1.197,202.800 1.551 M308.409 26.483 C 307.956 26.968,307.393 28.093,307.156 28.983 C 306.626 30.973,305.852 31.881,304.415 32.197 C 302.966 32.515,301.353 34.272,301.008 35.910 C 300.678 37.478,299.136 39.406,297.560 40.220 C 296.931 40.546,295.478 42.203,294.331 43.902 C 293.184 45.602,291.358 47.880,290.272 48.966 C 289.187 50.051,287.881 51.853,287.370 52.970 C 286.763 54.298,285.860 55.417,284.759 56.207 C 283.833 56.871,282.720 57.891,282.285 58.474 L 281.494 59.533 282.383 60.972 C 284.013 63.610,286.915 62.922,288.770 59.456 C 289.081 58.875,289.561 58.400,289.837 58.400 C 290.887 58.400,292.835 56.240,294.015 53.769 C 294.827 52.067,295.624 51.002,296.373 50.614 C 298.039 49.752,299.546 47.770,300.047 45.778 C 300.541 43.816,300.826 43.506,303.279 42.269 C 304.735 41.534,305.117 41.073,305.758 39.279 C 306.174 38.113,307.270 36.313,308.192 35.279 C 309.927 33.334,311.715 30.475,312.189 28.889 C 312.763 26.966,309.747 25.046,308.409 26.483 M309.945 29.360 L 309.449 30.450 308.898 29.398 C 308.188 28.044,308.938 26.767,309.887 27.715 C 310.341 28.169,310.351 28.469,309.945 29.360 M203.575 40.100 C 203.545 48.502,202.958 48.668,202.540 40.393 C 202.304 35.747,202.657 32.800,203.449 32.800 C 203.532 32.800,203.589 36.085,203.575 40.100 M304.214 35.100 C 304.064 35.485,303.839 37.015,303.713 38.500 C 303.587 39.985,303.309 41.200,303.095 41.200 C 302.882 41.200,302.815 40.795,302.948 40.300 C 303.081 39.805,303.192 38.275,303.195 36.900 C 303.199 34.873,303.322 34.400,303.843 34.400 C 304.292 34.400,304.404 34.611,304.214 35.100 M298.047 45.199 C 298.661 47.248,297.742 48.975,296.319 48.448 C 294.736 47.863,294.629 47.116,295.838 45.114 C 297.117 42.997,297.391 43.008,298.047 45.199 M80.949 45.167 C 78.692 46.192,78.574 46.561,79.943 48.297 C 80.596 49.123,81.427 50.700,81.791 51.800 C 82.450 53.792,84.139 56.000,85.005 56.000 C 85.711 56.000,87.010 57.597,88.139 59.853 C 88.703 60.982,89.873 62.466,90.737 63.150 C 91.805 63.996,92.770 65.366,93.748 67.425 C 94.673 69.373,96.030 71.339,97.546 72.928 C 98.843 74.288,100.362 76.311,100.921 77.425 C 102.299 80.169,102.520 80.295,106.295 80.461 L 109.590 80.605 109.998 79.433 C 110.376 78.349,110.272 78.124,108.624 76.476 C 107.623 75.476,106.724 74.145,106.576 73.446 C 106.236 71.838,104.645 69.733,103.054 68.785 C 102.254 68.309,101.291 67.059,100.394 65.332 C 99.497 63.605,98.404 62.186,97.376 61.413 C 95.615 60.089,94.356 58.327,92.455 54.530 C 91.742 53.106,90.876 51.951,90.409 51.803 C 89.459 51.501,87.818 49.428,87.400 48.000 C 86.420 44.653,84.214 43.685,80.949 45.167 M85.106 46.500 C 85.329 46.775,85.642 47.981,85.804 49.179 C 86.018 50.775,86.391 51.652,87.195 52.457 C 88.431 53.692,88.144 54.000,85.759 54.000 C 84.217 54.000,83.960 53.601,83.304 50.200 C 83.092 49.100,82.795 47.916,82.643 47.568 C 82.455 47.138,82.659 46.796,83.283 46.496 C 84.495 45.912,84.631 45.913,85.106 46.500 M292.159 51.639 C 293.584 54.050,290.987 57.344,289.423 55.111 C 288.566 53.888,288.637 53.290,289.820 51.738 C 291.074 50.094,291.242 50.087,292.159 51.639 M91.562 56.247 C 91.782 57.043,92.256 58.020,92.617 58.419 C 93.419 59.305,93.086 60.619,91.899 61.254 C 90.472 62.018,89.037 59.993,89.356 57.667 C 89.771 54.638,90.915 53.902,91.562 56.247 M286.403 59.004 C 286.728 59.395,286.546 59.727,285.662 60.356 C 284.476 61.200,284.258 61.138,283.459 59.732 C 282.714 58.423,285.375 57.765,286.403 59.004 M98.197 64.395 C 99.646 66.487,99.141 69.600,97.352 69.600 C 95.161 69.600,94.119 64.246,96.121 63.279 C 96.604 63.045,97.021 62.842,97.046 62.827 C 97.071 62.812,97.589 63.518,98.197 64.395 M104.145 71.300 C 104.455 71.795,104.830 73.190,104.978 74.400 C 105.126 75.610,105.499 76.986,105.806 77.459 C 106.335 78.272,106.288 78.332,104.930 78.587 C 103.265 78.899,103.072 78.748,102.386 76.600 C 102.105 75.720,101.430 74.326,100.886 73.503 C 99.584 71.531,100.125 70.784,103.091 70.454 C 103.361 70.425,103.835 70.805,104.145 71.300 M368.600 101.952 C 365.812 102.759,364.400 103.460,364.400 104.037 C 364.400 104.754,361.108 105.892,357.600 106.389 C 348.522 107.675,343.521 108.907,343.136 109.953 C 343.061 110.156,342.079 111.015,340.953 111.861 C 339.827 112.708,338.429 113.969,337.847 114.664 L 336.789 115.928 338.095 116.718 C 340.884 118.407,345.297 117.729,348.082 115.183 C 349.619 113.778,350.662 113.463,356.600 112.614 C 365.031 111.409,366.903 110.924,369.000 109.401 C 369.660 108.921,371.188 108.036,372.396 107.433 C 373.604 106.830,374.684 106.195,374.796 106.022 C 374.908 105.849,375.753 105.326,376.673 104.859 C 379.489 103.432,379.298 102.926,375.538 101.848 C 372.753 101.050,371.659 101.066,368.600 101.952 M374.125 103.142 C 374.733 103.382,374.617 103.539,373.408 104.116 C 372.061 104.758,371.882 104.759,370.686 104.141 C 368.780 103.156,371.878 102.256,374.125 103.142 M364.552 108.885 C 366.632 110.007,354.238 111.723,350.764 110.793 C 346.629 109.688,347.584 108.878,353.600 108.385 C 358.147 108.013,363.379 108.252,364.552 108.885 M341.986 116.083 C 340.457 116.649,339.382 116.103,340.215 115.183 C 340.846 114.486,340.951 114.481,341.888 115.095 L 342.888 115.750 341.986 116.083 M25.000 133.809 C 23.900 134.115,22.830 134.373,22.622 134.382 C 22.413 134.392,22.786 134.985,23.449 135.700 C 24.112 136.415,24.991 137.810,25.401 138.800 C 25.812 139.790,26.276 140.753,26.434 140.941 C 27.144 141.783,36.060 143.048,48.000 144.001 C 56.587 144.686,59.532 145.170,63.823 146.602 C 70.561 148.850,77.594 149.665,80.492 148.532 C 83.858 147.217,83.853 147.233,81.743 144.356 C 78.343 139.722,79.548 139.993,52.600 137.799 C 39.368 136.722,37.043 136.383,34.512 135.157 C 30.693 133.308,28.118 132.944,25.000 133.809 M60.600 139.988 C 70.250 140.949,70.195 140.938,68.600 141.611 C 66.525 142.488,51.825 143.017,45.800 142.433 C 42.940 142.156,38.825 141.775,36.656 141.587 C 32.118 141.194,31.880 141.089,33.564 140.219 C 36.608 138.644,46.272 138.562,60.600 139.988 M79.108 145.961 L 79.966 147.122 78.927 147.383 C 77.514 147.737,73.531 147.207,73.704 146.688 C 74.294 144.917,77.970 144.423,79.108 145.961 M333.078 201.145 C 330.329 202.958,331.058 205.465,334.916 207.460 C 335.562 207.794,336.836 208.748,337.746 209.580 C 339.832 211.488,340.968 212.061,345.234 213.362 C 347.448 214.036,349.009 214.771,349.627 215.429 C 351.095 216.991,352.798 217.909,356.568 219.167 C 360.151 220.363,362.000 221.334,362.000 222.018 C 362.000 222.694,365.690 224.800,366.874 224.800 C 367.489 224.800,368.938 225.160,370.096 225.600 C 371.253 226.040,372.597 226.400,373.081 226.400 C 374.305 226.400,376.000 227.228,376.000 227.825 C 376.000 228.602,378.255 229.256,378.775 228.630 C 379.256 228.051,378.665 225.839,377.743 224.769 C 377.445 224.421,377.200 223.671,377.200 223.102 C 377.200 221.705,374.750 219.801,371.571 218.727 C 369.781 218.123,368.659 217.417,367.456 216.139 C 365.913 214.499,360.853 212.000,359.075 212.000 C 358.772 212.000,357.514 211.116,356.279 210.035 C 354.106 208.134,352.414 207.314,347.442 205.756 C 345.881 205.267,344.420 204.421,343.123 203.255 C 340.279 200.698,335.332 199.659,333.078 201.145 M338.151 202.410 C 340.728 202.960,341.600 203.464,341.600 204.405 C 341.600 205.472,343.090 206.354,345.649 206.802 C 346.832 207.009,349.060 207.632,350.600 208.187 C 352.140 208.742,353.431 209.197,353.468 209.198 C 353.506 209.199,353.651 209.721,353.791 210.359 C 354.160 212.037,355.192 212.775,357.750 213.192 C 361.192 213.752,364.800 215.496,364.800 216.600 C 364.800 217.882,367.364 219.510,370.212 220.036 C 373.427 220.630,374.883 221.420,374.725 222.483 C 374.225 225.831,364.931 224.588,364.180 221.072 C 363.794 219.270,363.293 218.800,361.756 218.800 C 358.741 218.800,352.783 216.458,352.190 215.039 C 351.438 213.237,351.044 213.013,347.392 212.315 C 342.322 211.346,340.144 210.241,339.231 208.178 C 338.508 206.542,336.972 205.613,334.975 205.602 C 334.741 205.601,334.054 205.083,333.448 204.450 L 332.346 203.300 333.421 202.455 C 334.057 201.955,334.845 201.688,335.348 201.801 C 335.817 201.907,337.078 202.181,338.151 202.410 M81.400 232.258 C 79.291 233.029,78.139 233.760,76.732 235.217 C 75.448 236.547,74.323 237.298,73.134 237.618 C 70.923 238.213,68.535 239.432,67.417 240.536 C 66.227 241.710,63.701 243.071,60.962 244.013 C 58.286 244.934,57.805 245.291,56.540 247.295 C 55.965 248.207,54.907 249.121,53.860 249.614 C 49.514 251.657,48.734 254.105,51.822 256.014 C 53.937 257.320,57.529 255.953,60.750 252.615 C 61.983 251.337,63.099 250.623,64.533 250.198 C 66.999 249.465,69.329 247.913,69.925 246.605 C 70.456 245.439,71.562 244.851,75.938 243.409 C 78.757 242.480,79.563 242.005,81.121 240.354 C 82.135 239.280,83.153 238.400,83.383 238.400 C 86.006 238.398,90.471 234.783,89.363 233.559 C 87.357 231.343,84.970 230.953,81.400 232.258 M86.300 233.596 C 87.900 234.571,87.901 234.549,86.253 235.567 C 84.749 236.497,83.512 236.607,81.692 235.972 C 79.693 235.275,79.826 234.577,82.129 233.669 C 84.732 232.642,84.736 232.642,86.300 233.596 M78.569 239.818 C 78.915 241.198,78.660 241.485,76.903 241.695 C 76.076 241.793,74.540 242.121,73.489 242.423 C 71.543 242.982,69.689 242.467,69.285 241.255 C 69.032 240.496,71.785 239.417,74.600 239.173 C 76.140 239.039,77.605 238.900,77.857 238.865 C 78.108 238.829,78.428 239.258,78.569 239.818 M66.886 245.100 C 68.506 246.960,67.530 248.056,63.646 248.733 C 62.241 248.979,60.682 249.447,60.182 249.775 C 58.954 250.580,58.304 249.800,58.474 247.728 C 58.592 246.302,58.707 246.177,60.200 245.850 C 61.080 245.657,62.610 245.271,63.600 244.991 C 66.057 244.298,66.191 244.302,66.886 245.100 M55.671 251.595 C 56.349 251.600,57.600 252.609,57.600 253.149 C 57.600 253.490,54.195 255.200,53.515 255.200 C 53.260 255.200,52.633 254.807,52.122 254.326 L 51.192 253.453 52.291 252.305 C 53.041 251.522,53.647 251.225,54.196 251.373 C 54.638 251.492,55.302 251.592,55.671 251.595 M302.144 251.960 C 300.379 253.048,300.320 253.251,300.995 255.867 C 301.958 259.596,302.295 260.101,305.098 262.000 C 306.558 262.990,308.044 264.340,308.399 265.000 C 308.755 265.660,310.565 267.242,312.423 268.515 C 314.280 269.788,316.627 271.662,317.638 272.679 C 318.877 273.925,320.236 274.801,321.807 275.364 C 323.704 276.045,324.294 276.484,324.988 277.729 C 326.736 280.866,330.245 281.331,333.520 278.860 L 334.421 278.181 332.324 276.590 C 331.170 275.716,328.960 273.713,327.413 272.140 C 325.815 270.516,323.686 268.825,322.485 268.226 C 321.264 267.617,320.223 266.786,320.023 266.261 C 319.546 265.005,317.056 262.896,315.152 262.134 C 314.134 261.727,313.345 261.054,312.941 260.250 C 312.178 258.730,311.144 257.835,308.877 256.730 C 307.930 256.268,306.850 255.446,306.477 254.902 C 306.105 254.358,305.260 253.300,304.600 252.550 L 303.400 251.186 302.144 251.960 M303.600 255.067 C 303.600 257.288,303.408 257.230,303.051 254.900 C 302.890 253.849,302.945 253.200,303.195 253.200 C 303.418 253.200,303.600 254.040,303.600 255.067 M310.789 258.986 C 311.415 259.741,310.940 262.772,310.147 263.076 C 309.815 263.203,309.009 262.714,308.234 261.916 C 307.496 261.157,306.332 260.303,305.647 260.019 C 304.403 259.504,304.162 259.171,304.667 258.667 C 305.217 258.117,310.286 258.381,310.789 258.986 M317.978 266.126 C 318.009 267.140,317.350 268.257,316.537 268.569 C 315.749 268.871,311.600 266.209,311.600 265.400 C 311.600 263.018,317.905 263.736,317.978 266.126 M323.239 270.303 C 326.055 272.192,325.813 274.376,322.785 274.394 C 319.937 274.411,318.286 270.948,320.718 270.059 C 322.175 269.526,322.066 269.515,323.239 270.303 M329.527 277.168 L 330.854 278.303 329.587 278.744 C 327.682 279.409,326.714 278.765,327.261 277.198 C 327.768 275.742,327.859 275.741,329.527 277.168 M235.016 309.905 C 234.485 313.050,227.839 313.710,196.200 313.759 C 179.394 313.786,177.152 313.560,174.335 311.554 C 172.925 310.550,172.818 310.620,173.259 312.251 C 173.799 314.248,174.937 314.608,181.896 314.979 C 188.519 315.333,190.886 315.577,191.375 315.956 C 193.085 317.279,203.429 317.683,207.168 316.573 C 208.329 316.228,209.510 316.033,209.791 316.141 C 210.072 316.249,210.459 316.183,210.651 315.994 C 210.987 315.665,214.918 315.266,226.336 314.406 C 231.578 314.010,234.393 313.260,234.406 312.254 C 234.410 311.964,234.519 311.945,234.706 312.200 C 235.229 312.911,237.596 313.976,238.166 313.758 C 238.470 313.641,238.838 313.738,238.983 313.973 C 239.128 314.208,239.427 314.400,239.646 314.400 C 239.865 314.400,239.576 313.995,239.004 313.500 C 238.375 312.956,237.763 311.808,237.457 310.600 C 236.779 307.918,235.417 307.530,235.016 309.905 M169.077 310.734 C 168.257 312.593,168.221 313.037,168.948 312.309 C 169.988 311.270,170.879 309.200,170.287 309.200 C 169.994 309.200,169.449 309.890,169.077 310.734 M164.080 315.280 C 163.799 315.561,163.600 316.913,163.600 318.547 C 163.600 322.000,163.879 321.907,164.040 318.400 C 164.106 316.970,164.326 315.575,164.529 315.300 C 164.999 314.663,164.709 314.651,164.080 315.280 M164.093 326.000 C 164.093 326.770,164.175 327.085,164.276 326.700 C 164.376 326.315,164.376 325.685,164.276 325.300 C 164.175 324.915,164.093 325.230,164.093 326.000 M241.293 326.800 C 241.293 327.570,241.375 327.885,241.476 327.500 C 241.576 327.115,241.576 326.485,241.476 326.100 C 241.375 325.715,241.293 326.030,241.293 326.800 M240.000 329.390 C 239.222 329.827,237.537 329.919,232.400 329.805 C 226.027 329.664,218.845 330.215,214.200 331.203 C 213.100 331.437,211.930 331.667,211.600 331.714 C 211.270 331.761,210.886 331.956,210.747 332.148 C 210.467 332.533,202.500 332.509,201.872 332.121 C 201.635 331.974,201.605 332.084,201.798 332.397 C 202.055 332.813,201.608 332.863,199.560 332.647 C 197.993 332.481,197.211 332.517,197.543 332.738 C 197.933 332.998,197.781 333.100,197.000 333.100 C 196.219 333.100,196.067 332.998,196.457 332.738 C 196.789 332.517,196.007 332.481,194.440 332.647 C 192.879 332.811,191.971 332.771,192.112 332.542 C 192.246 332.325,191.746 332.237,190.926 332.333 C 190.146 332.424,189.394 332.325,189.254 332.113 C 188.287 330.646,175.204 330.900,173.100 332.426 C 172.295 333.010,172.000 333.078,172.000 332.679 C 172.000 332.379,171.775 332.114,171.500 332.090 C 170.607 332.013,169.811 331.784,169.279 331.452 C 168.992 331.273,168.002 331.057,167.079 330.973 C 165.750 330.852,165.587 330.898,166.297 331.196 C 168.793 332.242,169.121 334.586,167.384 338.955 L 166.448 341.311 167.324 342.042 C 167.806 342.444,168.333 342.779,168.495 342.787 C 168.658 342.794,169.159 343.115,169.608 343.500 C 170.058 343.885,170.555 344.206,170.713 344.214 C 170.871 344.222,171.405 344.453,171.900 344.728 C 172.395 345.003,172.800 345.125,172.800 345.000 C 172.800 344.875,173.115 344.941,173.500 345.147 C 173.886 345.353,176.991 345.645,180.400 345.795 C 183.810 345.946,188.863 346.208,191.630 346.377 C 194.396 346.547,199.976 346.542,204.030 346.367 C 227.299 345.359,230.722 345.187,232.181 344.951 C 233.581 344.725,236.441 343.190,236.197 342.796 C 236.104 342.644,236.426 342.289,236.914 342.007 C 237.401 341.725,238.492 340.714,239.339 339.761 L 240.877 338.029 240.187 336.222 C 239.485 334.385,239.542 333.177,240.432 331.000 C 240.894 329.871,241.209 328.783,241.065 328.814 C 241.029 328.822,240.550 329.081,240.000 329.390 M235.735 332.798 C 238.206 336.980,233.106 342.592,225.907 343.613 C 224.309 343.840,218.322 344.197,212.601 344.406 C 206.880 344.615,201.390 344.890,200.400 345.016 C 198.161 345.301,181.186 344.522,178.315 344.002 C 174.484 343.308,172.003 341.681,172.001 339.862 C 171.998 335.584,173.922 334.909,184.320 335.543 C 200.522 336.532,214.125 335.997,217.527 334.238 C 222.915 331.452,234.403 330.543,235.735 332.798 M242.840 349.427 C 242.975 351.513,243.179 353.312,243.293 353.427 C 243.595 353.728,243.154 346.254,242.850 345.918 C 242.710 345.763,242.706 347.342,242.840 349.427 M163.467 346.667 C 163.069 347.065,163.145 348.000,163.575 348.000 C 163.781 348.000,163.923 347.640,163.890 347.200 C 163.822 346.296,163.829 346.305,163.467 346.667 M163.701 350.200 C 163.705 351.080,163.787 351.393,163.883 350.895 C 163.979 350.398,163.975 349.678,163.875 349.295 C 163.775 348.913,163.696 349.320,163.701 350.200 M163.634 352.624 C 163.615 353.076,163.883 353.796,164.230 354.224 C 164.576 354.651,164.737 354.761,164.587 354.469 C 164.437 354.176,164.169 353.456,163.991 352.869 C 163.733 352.011,163.662 351.963,163.634 352.624 M241.800 356.800 C 241.648 357.491,241.607 358.141,241.709 358.242 C 241.811 358.344,242.009 357.853,242.150 357.150 C 242.291 356.447,242.331 355.798,242.241 355.708 C 242.150 355.617,241.952 356.109,241.800 356.800 M165.439 356.558 C 165.535 356.807,166.161 357.253,166.832 357.550 C 170.394 359.127,171.676 363.796,170.196 369.800 L 169.605 372.200 170.902 374.858 C 172.210 377.537,174.400 379.462,174.400 377.933 C 174.400 377.677,174.295 377.572,174.167 377.700 C 173.770 378.097,172.250 376.313,171.159 374.168 L 170.119 372.123 171.120 370.428 L 172.121 368.733 173.660 370.417 C 174.507 371.343,175.200 372.446,175.200 372.867 C 175.200 373.960,176.522 375.233,177.858 375.427 C 182.833 376.148,210.474 376.387,225.930 375.843 C 228.326 375.759,228.489 375.813,229.030 376.857 C 229.768 378.285,229.782 378.235,228.500 378.715 C 223.439 380.609,205.470 381.521,194.800 380.424 C 192.710 380.210,188.120 379.913,184.600 379.765 C 180.855 379.608,177.661 379.277,176.900 378.969 C 175.347 378.338,175.234 378.597,176.596 379.669 C 177.192 380.137,177.844 381.316,178.216 382.596 C 178.559 383.775,179.355 385.389,179.986 386.183 C 180.617 386.977,181.681 388.480,182.350 389.523 C 184.083 392.222,197.899 396.800,201.679 395.927 C 202.662 395.700,205.459 395.635,208.200 395.776 C 210.840 395.912,213.413 396.037,213.919 396.053 C 216.041 396.121,224.292 393.092,224.687 392.100 C 224.796 391.825,225.091 391.598,225.343 391.595 C 228.067 391.565,231.194 385.592,230.729 381.308 C 230.303 377.385,230.758 376.142,233.178 374.614 C 235.080 373.413,235.475 372.858,234.264 373.090 C 232.703 373.388,232.090 372.132,233.631 371.793 C 234.406 371.623,235.004 371.683,235.167 371.947 C 235.494 372.475,237.443 367.580,238.056 364.693 C 238.402 363.064,238.859 362.267,240.117 361.100 C 241.006 360.275,241.613 359.480,241.467 359.333 C 241.320 359.187,241.200 359.283,241.200 359.547 C 241.200 360.214,237.107 359.666,236.680 358.942 C 236.504 358.644,236.179 358.400,235.957 358.400 C 235.734 358.400,235.684 358.625,235.845 358.900 C 236.006 359.175,235.785 359.092,235.355 358.716 C 234.615 358.070,234.548 358.072,234.124 358.751 C 233.657 359.497,226.162 360.573,218.600 360.978 C 216.840 361.073,212.790 361.296,209.600 361.475 C 206.410 361.653,203.440 361.770,203.000 361.734 C 200.531 361.533,180.993 360.633,178.800 360.620 C 175.115 360.598,172.416 361.238,172.384 362.143 C 172.375 362.394,172.093 362.093,171.757 361.472 C 170.859 359.817,168.096 357.094,167.615 357.391 C 167.387 357.532,167.199 357.502,167.197 357.324 C 167.195 357.146,166.760 356.799,166.230 356.553 C 165.516 356.222,165.311 356.223,165.439 356.558 M235.150 361.907 C 236.021 363.535,236.107 365.668,235.386 367.789 L 234.668 369.901 231.634 370.815 C 229.965 371.318,227.954 372.155,227.165 372.674 C 224.447 374.463,223.709 374.538,207.141 374.701 C 188.447 374.884,186.187 374.651,181.133 372.014 C 179.415 371.117,177.917 370.387,177.804 370.392 C 175.673 370.479,174.644 369.625,174.232 367.430 C 173.261 362.255,176.932 361.488,192.400 363.632 C 199.931 364.676,207.002 364.763,211.400 363.865 C 213.160 363.506,216.760 362.931,219.400 362.588 C 222.040 362.244,225.010 361.814,226.000 361.632 C 229.603 360.968,234.730 361.122,235.150 361.907 M229.004 382.155 C 229.821 384.965,229.140 386.662,226.795 387.661 C 225.702 388.126,225.071 388.734,224.662 389.712 C 223.894 391.552,223.935 391.535,218.295 392.437 C 209.608 393.826,204.958 393.830,195.572 392.460 C 186.108 391.078,185.476 390.807,183.098 387.098 C 180.092 382.408,182.185 380.094,188.274 381.373 C 194.842 382.753,210.451 383.610,214.800 382.830 C 216.010 382.612,218.620 382.146,220.600 381.792 C 222.580 381.439,224.920 380.900,225.800 380.594 C 228.197 379.761,228.327 379.825,229.004 382.155 " stroke="none" fill="#9c9c9c" fill-rule="evenodd"></path><path id="path4" d="M195.192 2.100 C 195.188 3.255,194.903 5.730,194.558 7.600 C 193.705 12.236,193.293 37.491,193.990 42.400 C 194.820 48.246,196.510 50.473,201.438 52.221 C 207.749 54.459,208.291 50.074,206.947 7.700 L 206.702 0.000 205.099 0.000 L 203.495 0.000 203.768 3.100 C 203.918 4.805,204.209 11.600,204.415 18.200 C 204.621 24.800,204.938 32.450,205.119 35.200 C 205.615 42.712,205.307 47.252,204.209 48.630 L 203.323 49.741 201.935 48.883 C 199.973 47.671,199.400 46.902,198.594 44.400 C 198.204 43.190,197.641 41.845,197.342 41.411 C 196.338 39.950,196.578 15.338,197.611 13.800 C 198.475 12.515,201.121 7.199,202.165 4.651 C 202.514 3.799,202.800 2.404,202.800 1.551 L 202.800 0.000 199.000 0.000 L 195.200 0.000 195.192 2.100 M307.848 24.525 C 306.752 25.095,306.072 25.839,305.533 27.059 C 305.112 28.009,304.314 29.104,303.759 29.493 C 301.200 31.285,300.327 32.224,299.128 34.474 C 298.283 36.059,297.318 37.220,296.323 37.849 C 294.903 38.745,293.488 40.492,291.941 43.260 C 291.578 43.909,290.275 45.463,289.044 46.713 C 287.608 48.172,286.414 49.886,285.714 51.494 C 285.113 52.872,284.416 54.000,284.165 54.000 C 282.265 54.000,279.417 58.257,279.740 60.613 C 280.605 66.929,286.181 67.227,290.733 61.200 C 291.481 60.210,292.639 59.050,293.306 58.623 C 294.081 58.127,294.933 56.936,295.659 55.333 C 296.413 53.672,297.171 52.628,297.899 52.249 C 299.560 51.385,300.664 50.016,301.481 47.810 C 301.991 46.432,302.645 45.538,303.609 44.905 C 305.912 43.389,306.883 42.304,307.885 40.120 C 308.486 38.812,309.326 37.740,310.151 37.230 C 312.817 35.583,315.557 28.918,314.467 26.735 C 313.299 24.399,310.126 23.339,307.848 24.525 M311.188 26.789 C 312.176 27.711,312.400 28.182,312.189 28.889 C 311.715 30.475,309.927 33.334,308.192 35.279 C 307.270 36.313,306.174 38.113,305.758 39.279 C 305.117 41.073,304.735 41.534,303.279 42.269 C 300.826 43.506,300.541 43.816,300.047 45.778 C 299.546 47.770,298.039 49.752,296.373 50.614 C 295.624 51.002,294.827 52.067,294.015 53.769 C 292.835 56.240,290.887 58.400,289.837 58.400 C 289.561 58.400,289.081 58.875,288.770 59.456 C 286.915 62.922,284.013 63.610,282.383 60.972 L 281.494 59.533 282.285 58.474 C 282.720 57.891,283.833 56.871,284.759 56.207 C 285.860 55.417,286.763 54.298,287.370 52.970 C 287.881 51.853,289.187 50.051,290.272 48.966 C 291.358 47.880,293.184 45.602,294.331 43.902 C 295.478 42.203,296.931 40.546,297.560 40.220 C 299.136 39.406,300.678 37.478,301.008 35.910 C 301.353 34.272,302.966 32.515,304.415 32.197 C 305.852 31.881,306.626 30.973,307.156 28.983 C 308.014 25.760,309.323 25.047,311.188 26.789 M77.250 40.627 C 76.396 41.713,75.780 43.471,75.356 46.031 C 75.138 47.355,75.262 47.587,77.023 49.136 C 78.265 50.230,79.424 51.816,80.363 53.706 C 81.618 56.233,82.058 56.738,83.834 57.690 C 85.553 58.611,85.946 59.044,86.379 60.490 C 87.051 62.736,88.170 64.262,89.732 65.062 C 91.237 65.833,91.586 66.292,91.594 67.513 C 91.607 69.439,95.007 74.800,96.215 74.800 C 96.930 74.800,98.498 76.926,99.525 79.289 C 100.389 81.278,101.986 82.562,104.184 83.035 C 105.802 83.383,107.630 84.324,108.540 85.277 C 109.444 86.225,110.387 85.575,111.623 83.154 C 113.778 78.933,113.328 76.453,110.124 74.885 C 109.004 74.338,108.585 73.787,108.039 72.149 C 107.095 69.315,106.303 68.231,104.377 67.139 C 102.996 66.356,102.599 65.835,101.991 64.009 C 101.428 62.319,100.706 61.289,98.836 59.509 C 97.246 57.996,95.930 56.246,95.014 54.428 C 94.085 52.583,92.996 51.143,91.761 50.127 C 90.484 49.076,89.552 47.822,88.772 46.106 C 87.479 43.260,86.060 42.157,83.213 41.787 C 81.261 41.534,80.288 41.169,78.944 40.187 C 78.142 39.601,78.036 39.628,77.250 40.627 M86.133 45.700 C 86.669 46.415,87.239 47.450,87.400 48.000 C 87.818 49.428,89.459 51.501,90.409 51.803 C 90.876 51.951,91.742 53.106,92.455 54.530 C 94.356 58.327,95.615 60.089,97.376 61.413 C 98.404 62.186,99.497 63.605,100.394 65.332 C 101.291 67.059,102.254 68.309,103.054 68.785 C 104.645 69.733,106.236 71.838,106.576 73.446 C 106.724 74.145,107.623 75.476,108.624 76.476 C 110.272 78.124,110.376 78.349,109.998 79.433 L 109.590 80.605 106.295 80.461 C 102.520 80.295,102.299 80.169,100.921 77.425 C 100.362 76.311,98.843 74.288,97.546 72.928 C 96.030 71.339,94.673 69.373,93.748 67.425 C 92.770 65.366,91.805 63.996,90.737 63.150 C 89.873 62.466,88.703 60.982,88.139 59.853 C 87.010 57.597,85.711 56.000,85.005 56.000 C 84.139 56.000,82.450 53.792,81.791 51.800 C 81.427 50.700,80.596 49.123,79.943 48.297 C 78.574 46.561,78.692 46.192,80.949 45.167 C 83.508 44.005,84.977 44.156,86.133 45.700 M366.547 99.797 C 363.714 100.413,362.124 101.158,361.007 102.392 C 359.574 103.976,356.802 104.712,348.941 105.595 C 342.900 106.274,340.294 107.562,336.064 111.962 C 332.545 115.621,332.492 115.763,334.080 117.214 C 338.234 121.009,347.608 120.674,352.000 116.575 C 353.281 115.379,356.578 114.511,362.562 113.794 C 368.762 113.050,374.400 111.040,374.400 109.572 C 374.400 109.395,375.586 108.667,377.034 107.953 C 386.880 103.106,379.111 97.065,366.547 99.797 M375.538 101.848 C 379.298 102.926,379.489 103.432,376.673 104.859 C 375.753 105.326,374.908 105.849,374.796 106.022 C 374.684 106.195,373.604 106.830,372.396 107.433 C 371.188 108.036,369.660 108.921,369.000 109.401 C 366.903 110.924,365.031 111.409,356.600 112.614 C 350.662 113.463,349.619 113.778,348.082 115.183 C 345.297 117.729,340.884 118.407,338.095 116.718 L 336.789 115.928 337.847 114.664 C 338.429 113.969,339.827 112.708,340.953 111.861 C 342.079 111.015,343.061 110.156,343.136 109.953 C 343.521 108.907,348.522 107.675,357.600 106.389 C 361.108 105.892,364.400 104.754,364.400 104.037 C 364.400 102.243,371.827 100.784,375.538 101.848 M23.474 131.093 C 22.357 131.209,21.532 131.668,20.391 132.809 L 18.833 134.367 19.460 136.483 C 20.439 139.788,21.083 140.736,23.319 142.159 C 26.689 144.303,27.401 144.422,42.800 145.412 C 49.174 145.822,53.910 146.716,56.663 148.030 C 62.004 150.579,76.567 152.050,82.126 150.602 C 86.830 149.377,87.934 147.923,86.619 144.686 C 84.113 138.522,81.424 137.458,66.688 136.803 C 49.798 136.053,44.027 135.341,41.535 133.703 C 38.635 131.797,29.461 130.471,23.474 131.093 M30.698 133.768 C 31.851 134.075,33.568 134.700,34.512 135.157 C 37.043 136.383,39.368 136.722,52.600 137.799 C 79.548 139.993,78.343 139.722,81.743 144.356 C 83.853 147.233,83.858 147.217,80.492 148.532 C 77.594 149.665,70.561 148.850,63.823 146.602 C 59.532 145.170,56.587 144.686,48.000 144.001 C 36.060 143.048,27.144 141.783,26.434 140.941 C 26.276 140.753,25.812 139.790,25.401 138.800 C 24.991 137.810,24.112 136.415,23.449 135.700 C 22.786 134.985,22.413 134.392,22.622 134.382 C 22.830 134.373,23.900 134.115,25.000 133.809 C 27.568 133.096,28.159 133.092,30.698 133.768 M332.600 199.001 C 327.526 200.796,327.937 207.066,333.241 208.762 C 334.081 209.031,334.862 209.618,335.114 210.170 C 335.951 212.007,343.613 215.607,346.673 215.601 C 346.933 215.600,347.258 215.952,347.394 216.382 C 347.872 217.888,349.984 219.121,354.547 220.558 C 358.647 221.849,359.226 222.147,359.969 223.350 C 360.707 224.544,361.329 224.870,365.489 226.238 C 368.442 227.209,370.646 228.192,371.445 228.893 C 372.731 230.022,375.338 231.304,377.249 231.746 C 377.979 231.916,378.690 231.718,379.589 231.095 C 384.809 227.479,380.868 219.373,372.840 217.211 C 371.864 216.948,370.710 216.282,370.242 215.711 C 367.642 212.538,366.510 211.944,360.100 210.383 C 359.138 210.149,358.400 209.733,358.400 209.426 C 358.400 207.859,354.100 205.514,349.092 204.351 C 347.225 203.917,346.554 203.527,345.572 202.305 C 343.907 200.233,341.897 199.312,337.964 198.819 C 334.008 198.323,334.571 198.304,332.600 199.001 M338.682 200.961 C 340.652 201.383,341.568 201.857,343.123 203.255 C 344.420 204.421,345.881 205.267,347.442 205.756 C 352.414 207.314,354.106 208.134,356.279 210.035 C 357.514 211.116,358.772 212.000,359.075 212.000 C 360.853 212.000,365.913 214.499,367.456 216.139 C 368.659 217.417,369.781 218.123,371.571 218.727 C 374.750 219.801,377.200 221.705,377.200 223.102 C 377.200 223.671,377.445 224.421,377.743 224.769 C 378.665 225.839,379.256 228.051,378.775 228.630 C 378.255 229.256,376.000 228.602,376.000 227.825 C 376.000 227.228,374.305 226.400,373.081 226.400 C 372.597 226.400,371.253 226.040,370.096 225.600 C 368.938 225.160,367.489 224.800,366.874 224.800 C 365.690 224.800,362.000 222.694,362.000 222.018 C 362.000 221.334,360.151 220.363,356.568 219.167 C 352.798 217.909,351.095 216.991,349.627 215.429 C 349.009 214.771,347.448 214.036,345.234 213.362 C 340.968 212.061,339.832 211.488,337.746 209.580 C 336.836 208.748,335.562 207.794,334.916 207.460 C 328.442 204.112,331.199 199.355,338.682 200.961 M89.858 228.009 C 89.229 228.400,87.270 228.932,85.503 229.190 C 79.582 230.056,74.800 232.104,74.800 233.774 C 74.800 234.683,73.311 235.647,70.955 236.262 C 67.854 237.072,65.934 238.096,64.235 239.845 C 63.298 240.810,61.916 241.615,60.113 242.245 C 56.840 243.388,55.593 244.246,54.800 245.899 C 54.379 246.777,53.452 247.528,51.692 248.417 C 47.081 250.747,46.010 254.655,49.238 257.371 C 51.877 259.591,59.548 258.127,61.924 254.949 C 63.451 252.906,64.093 252.422,66.366 251.601 C 69.536 250.456,70.474 249.864,71.526 248.341 C 72.383 247.100,76.716 244.848,78.316 244.812 C 79.444 244.786,81.868 243.200,83.075 241.697 C 83.857 240.723,84.811 240.018,85.545 239.871 C 87.603 239.459,90.332 237.976,91.822 236.458 C 93.420 234.830,93.452 234.186,92.138 229.962 C 91.282 227.207,91.225 227.159,89.858 228.009 M87.601 232.207 C 89.646 233.251,90.236 234.274,89.362 235.256 C 88.623 236.087,84.225 238.399,83.383 238.400 C 83.153 238.400,82.135 239.280,81.121 240.354 C 79.563 242.005,78.757 242.480,75.938 243.409 C 71.562 244.851,70.456 245.439,69.925 246.605 C 69.329 247.913,66.999 249.465,64.533 250.198 C 63.099 250.623,61.983 251.337,60.750 252.615 C 57.529 255.953,53.937 257.320,51.822 256.014 C 48.734 254.105,49.514 251.657,53.860 249.614 C 54.907 249.121,55.965 248.207,56.540 247.295 C 57.805 245.291,58.286 244.934,60.962 244.013 C 63.701 243.071,66.227 241.710,67.417 240.536 C 68.535 239.432,70.923 238.213,73.134 237.618 C 74.323 237.298,75.448 236.547,76.732 235.217 C 79.895 231.940,84.552 230.651,87.601 232.207 M301.000 249.801 C 298.358 250.735,296.633 252.916,297.385 254.371 C 297.716 255.011,298.375 256.585,298.850 257.867 C 299.982 260.927,300.883 262.158,302.575 262.961 C 304.059 263.665,306.144 265.586,307.315 267.327 C 307.709 267.912,309.149 269.142,310.515 270.059 C 311.882 270.976,313.831 272.493,314.847 273.430 C 316.725 275.162,319.714 276.872,321.695 277.349 C 322.420 277.524,323.048 278.118,323.553 279.106 C 325.082 282.104,327.296 283.039,331.967 282.660 C 337.754 282.191,339.513 277.604,334.823 275.212 C 333.962 274.772,332.389 273.406,331.329 272.175 C 329.534 270.093,324.912 266.815,322.943 266.229 C 322.472 266.088,321.874 265.461,321.614 264.834 C 320.923 263.166,319.266 261.752,317.036 260.927 C 315.501 260.359,314.878 259.850,314.186 258.600 C 313.242 256.894,311.142 255.200,309.970 255.200 C 309.229 255.200,308.276 254.146,307.123 252.048 C 305.786 249.614,303.697 248.847,301.000 249.801 M306.477 254.902 C 306.850 255.446,307.930 256.268,308.877 256.730 C 311.144 257.835,312.178 258.730,312.941 260.250 C 313.345 261.054,314.134 261.727,315.152 262.134 C 317.056 262.896,319.546 265.005,320.023 266.261 C 320.223 266.786,321.264 267.617,322.485 268.226 C 323.686 268.825,325.815 270.516,327.413 272.140 C 328.960 273.713,331.170 275.716,332.324 276.590 L 334.421 278.181 333.520 278.860 C 330.245 281.331,326.736 280.866,324.988 277.729 C 324.294 276.484,323.704 276.045,321.807 275.364 C 320.236 274.801,318.877 273.925,317.638 272.679 C 316.627 271.662,314.280 269.788,312.423 268.515 C 310.565 267.242,308.755 265.660,308.399 265.000 C 308.044 264.340,306.558 262.990,305.098 262.000 C 302.295 260.101,301.958 259.596,300.995 255.867 C 300.320 253.251,300.379 253.048,302.144 251.960 L 303.400 251.186 304.600 252.550 C 305.260 253.300,306.105 254.358,306.477 254.902 M238.692 303.841 C 238.531 304.002,238.400 304.425,238.400 304.782 C 238.400 305.139,238.057 306.103,237.639 306.924 C 236.349 309.454,238.295 314.400,240.580 314.400 C 241.464 314.400,241.626 315.475,241.637 321.402 C 241.649 327.337,241.505 328.551,240.534 330.720 C 239.466 333.106,239.433 334.602,240.402 336.604 C 242.401 340.733,244.092 352.261,243.013 354.399 C 242.735 354.950,242.278 356.390,241.997 357.600 C 241.613 359.257,241.118 360.145,239.990 361.200 C 238.832 362.284,238.390 363.097,238.034 364.800 C 237.106 369.242,235.129 373.283,233.276 374.527 C 230.719 376.245,230.300 377.360,230.729 381.308 C 231.198 385.627,228.063 391.567,225.300 391.595 C 225.025 391.598,224.800 391.775,224.800 391.990 C 224.800 392.764,219.965 394.711,215.002 395.936 C 214.212 396.131,213.974 396.337,214.302 396.540 C 214.576 396.709,214.800 397.557,214.800 398.424 L 214.800 400.000 218.400 400.000 L 222.000 400.000 222.000 398.400 C 222.000 397.389,222.184 396.798,222.500 396.796 C 222.775 396.793,224.089 396.028,225.420 395.096 C 230.945 391.224,231.750 390.114,233.196 384.365 C 233.706 382.339,234.518 380.330,235.235 379.315 C 236.942 376.904,238.605 373.147,239.787 369.035 C 240.634 366.087,241.115 365.147,242.563 363.598 C 243.526 362.568,244.587 361.202,244.920 360.563 C 245.254 359.923,246.369 358.148,247.398 356.617 L 249.270 353.833 249.135 350.017 L 249.000 346.200 246.124 340.400 L 243.248 334.600 244.403 329.044 C 245.038 325.988,245.641 323.270,245.743 323.004 C 246.616 320.729,244.536 313.829,242.128 311.010 C 241.273 310.009,240.439 308.333,239.877 306.485 C 239.386 304.870,238.853 303.681,238.692 303.841 M166.651 306.662 C 166.277 307.447,165.182 308.924,164.218 309.944 C 157.140 317.436,156.556 320.850,160.885 329.430 L 163.523 334.660 162.813 337.640 C 162.173 340.326,160.459 343.832,158.874 345.697 C 156.813 348.121,160.638 358.152,165.157 362.174 C 167.931 364.643,167.983 366.856,165.358 370.761 C 164.425 372.149,164.703 373.798,166.005 374.603 C 166.231 374.742,166.855 375.725,167.393 376.785 C 168.415 378.803,169.363 379.702,172.469 381.600 C 173.852 382.446,174.555 383.234,175.175 384.637 C 175.636 385.678,176.775 387.364,177.706 388.382 C 178.638 389.400,179.924 390.912,180.565 391.743 C 181.791 393.330,183.754 394.466,187.900 395.983 C 190.380 396.890,190.400 396.910,190.400 398.449 L 190.400 400.000 194.600 400.000 L 198.800 400.000 198.800 398.424 C 198.800 397.557,199.012 396.716,199.270 396.557 C 199.535 396.393,198.529 395.945,196.970 395.533 C 186.760 392.831,183.656 391.557,182.360 389.538 C 181.686 388.487,180.617 386.977,179.986 386.183 C 179.355 385.389,178.559 383.775,178.216 382.596 C 177.532 380.243,176.614 379.311,173.929 378.244 C 172.412 377.641,172.041 377.228,170.902 374.878 L 169.605 372.200 170.196 369.800 C 171.665 363.839,170.391 359.126,166.893 357.577 C 163.909 356.256,162.462 349.196,164.329 345.063 C 164.810 343.997,165.312 342.694,165.444 342.166 C 165.577 341.638,165.825 341.292,165.996 341.397 C 166.355 341.619,167.715 338.590,168.385 336.075 C 168.908 334.111,168.116 332.134,166.521 331.421 C 164.683 330.599,163.456 325.604,163.576 319.429 C 163.652 315.456,164.626 313.561,166.871 313.011 C 168.701 312.563,170.117 309.637,169.067 308.471 C 168.735 308.102,168.338 307.303,168.187 306.696 C 167.782 305.073,167.413 305.065,166.651 306.662 " stroke="none" fill="#a4a4a4" fill-rule="evenodd"></path></g></svg>