<svg id="svg" version="1.1" xmlns="http://www.w3.org/2000/svg" xmlns:xlink="http://www.w3.org/1999/xlink" width="400" height="400" viewBox="0, 0, 400,400"><g id="svgg"><path id="path0" d="M263.098 194.962 C 263.211 196.371,263.182 198.171,263.034 198.962 L 262.764 200.400 250.616 200.400 L 238.468 200.400 238.419 211.677 C 238.387 218.880,238.218 223.137,237.950 223.460 C 237.620 223.858,238.195 223.990,240.666 224.083 L 243.800 224.200 243.800 228.000 L 243.800 231.800 240.915 231.917 L 238.030 232.034 237.780 233.368 C 237.642 234.101,237.645 237.738,237.787 241.451 C 238.135 250.580,238.137 255.037,237.795 259.900 L 237.507 264.000 234.553 264.000 C 231.670 264.000,231.600 264.024,231.600 265.000 C 231.600 265.933,231.467 266.000,229.600 266.000 L 227.600 266.000 227.600 268.000 L 227.600 270.000 229.600 270.000 C 231.467 270.000,231.600 270.067,231.600 271.000 C 231.600 271.978,231.667 272.000,234.600 272.000 L 237.600 272.000 237.600 276.011 L 237.600 280.021 231.700 279.911 L 225.800 279.800 225.686 275.965 L 225.573 272.129 211.121 271.865 C 203.172 271.719,190.849 271.600,183.735 271.600 L 170.800 271.600 170.800 267.843 C 170.800 263.529,170.861 263.600,167.160 263.600 L 164.785 263.600 164.893 243.800 C 164.952 232.910,164.865 224.000,164.700 224.000 C 164.535 224.000,164.400 232.981,164.400 243.957 C 164.400 266.556,164.017 264.400,168.033 264.400 L 170.400 264.400 170.400 268.157 C 170.400 272.871,168.269 272.400,189.590 272.400 C 205.566 272.400,207.541 272.469,207.757 273.033 C 208.075 273.860,208.075 374.940,207.757 375.767 C 207.453 376.561,201.649 376.689,200.880 375.920 C 200.579 375.619,200.400 374.124,200.400 371.920 L 200.400 368.400 197.614 368.400 L 194.829 368.400 194.714 364.500 L 194.600 360.600 191.600 360.400 L 188.600 360.200 188.486 356.317 L 188.371 352.433 185.286 352.317 L 182.200 352.200 182.086 348.300 L 181.971 344.400 173.266 344.400 C 163.001 344.400,163.600 344.678,163.600 339.920 L 163.600 336.400 133.728 336.400 C 99.181 336.400,101.200 336.196,101.200 339.680 C 101.200 341.991,101.195 342.000,100.000 342.000 C 98.801 342.000,98.800 341.997,98.800 339.624 C 98.800 335.654,98.042 336.393,97.915 340.486 L 97.800 344.200 94.700 344.317 L 91.600 344.434 91.594 347.717 C 91.586 352.036,91.562 352.063,87.965 351.919 L 85.000 351.800 85.000 280.100 L 85.000 208.400 82.300 208.400 L 79.600 208.400 79.600 212.400 L 79.600 216.400 73.200 216.400 L 66.800 216.400 66.800 220.200 C 66.800 222.290,66.665 224.000,66.500 224.000 C 66.335 224.000,66.246 260.000,66.302 304.000 L 66.404 384.000 72.787 384.000 L 79.171 384.000 79.286 380.100 L 79.400 376.200 85.286 376.089 L 91.171 375.979 91.286 372.089 L 91.400 368.200 100.486 368.093 L 109.571 367.985 109.686 364.093 L 109.800 360.200 136.200 360.090 C 167.759 359.958,164.341 359.473,164.485 364.104 L 164.600 367.800 173.400 368.000 L 182.200 368.200 182.400 372.000 L 182.600 375.800 188.800 376.000 L 195.000 376.200 195.115 380.106 L 195.229 384.012 207.315 383.906 L 219.400 383.800 219.600 380.000 L 219.800 376.200 225.886 376.090 L 231.971 375.979 232.086 372.090 L 232.200 368.200 241.285 368.093 L 250.370 367.985 250.485 364.293 L 250.600 360.600 254.400 360.302 C 256.490 360.139,268.730 360.049,281.600 360.102 L 305.000 360.200 305.200 364.000 L 305.400 367.800 314.200 368.000 L 323.000 368.200 323.200 372.000 L 323.400 375.800 328.800 375.897 C 336.554 376.037,336.000 375.725,336.000 379.967 L 336.000 383.518 341.323 383.803 C 344.251 383.960,346.996 384.021,347.423 383.939 C 348.314 383.767,348.891 224.000,348.001 224.000 C 347.761 224.000,347.600 222.473,347.600 220.200 L 347.600 216.400 341.200 216.400 L 334.800 216.400 334.800 212.400 L 334.800 208.400 328.971 208.400 C 322.934 208.400,322.000 208.163,322.000 206.629 C 322.000 206.283,321.799 206.000,321.553 206.000 C 321.287 206.000,321.188 206.423,321.307 207.047 C 321.486 207.986,318.426 208.431,317.868 207.547 C 317.343 206.715,318.164 202.000,318.834 202.000 C 319.255 202.000,319.600 201.820,319.600 201.600 C 319.600 201.380,320.320 201.200,321.200 201.200 C 322.080 201.200,322.800 201.023,322.800 200.806 C 322.800 200.558,318.308 200.372,310.700 200.306 L 298.600 200.200 298.486 196.300 L 298.371 192.400 280.632 192.400 L 262.892 192.400 263.098 194.962 M305.000 220.000 L 305.000 223.800 283.200 223.923 C 271.210 223.991,259.015 223.927,256.100 223.782 L 250.800 223.518 250.800 219.977 L 250.800 216.437 253.500 216.295 C 254.985 216.217,267.180 216.164,280.600 216.177 L 305.000 216.200 305.000 220.000 M71.600 220.400 L 71.600 222.800 70.000 222.800 L 68.400 222.800 68.400 220.400 L 68.400 218.000 70.000 218.000 L 71.600 218.000 71.600 220.400 M324.000 224.518 C 324.932 224.989,325.000 225.227,325.000 228.000 C 325.000 231.953,324.845 232.033,317.400 231.900 L 311.800 231.800 311.683 228.433 C 311.618 226.582,311.658 224.827,311.770 224.533 C 312.052 223.799,322.553 223.786,324.000 224.518 M335.000 236.000 L 335.000 239.800 332.400 239.800 L 329.800 239.800 329.683 236.433 C 329.525 231.893,329.495 231.938,332.495 232.081 L 335.000 232.200 335.000 236.000 M311.000 244.000 L 311.000 247.800 281.800 247.897 C 265.740 247.951,250.890 247.861,248.800 247.697 L 245.000 247.400 245.000 244.000 L 245.000 240.600 247.800 240.369 C 249.340 240.243,264.190 240.153,280.800 240.169 L 311.000 240.200 311.000 244.000 M329.348 248.900 C 329.661 250.067,329.659 253.940,329.345 255.111 C 329.104 256.011,329.035 256.020,323.451 255.911 L 317.800 255.800 317.683 252.433 C 317.517 247.682,317.097 248.000,323.541 248.000 C 328.975 248.000,329.112 248.021,329.348 248.900 M268.600 268.000 L 268.600 271.800 256.400 271.800 L 244.200 271.800 244.083 268.433 C 244.018 266.582,244.059 264.824,244.172 264.528 C 244.341 264.088,246.626 264.008,256.490 264.094 L 268.600 264.200 268.600 268.000 M317.114 268.100 L 317.229 272.000 305.014 272.000 L 292.800 272.000 292.800 267.994 L 292.800 263.988 304.900 264.094 L 317.000 264.200 317.114 268.100 M329.520 272.480 C 330.251 273.211,330.157 278.972,329.405 279.596 C 328.956 279.968,327.425 280.019,323.205 279.800 L 317.600 279.510 317.600 275.973 L 317.600 272.435 320.500 272.297 C 327.275 271.974,329.050 272.010,329.520 272.480 M255.800 292.000 L 255.800 295.800 247.200 295.800 L 238.600 295.800 238.483 292.433 C 238.313 287.566,237.497 287.968,247.291 288.092 L 255.800 288.200 255.800 292.000 M317.400 292.000 L 317.400 295.800 308.400 295.800 L 299.400 295.800 299.283 292.433 C 299.113 287.559,298.244 287.968,308.490 288.092 L 317.400 288.200 317.400 292.000 M231.800 300.000 L 231.800 303.800 228.800 303.800 L 225.800 303.800 225.683 300.433 C 225.523 295.835,225.443 295.943,228.894 296.082 L 231.800 296.200 231.800 300.000 M335.000 300.000 L 335.000 303.800 329.400 303.800 L 323.800 303.800 323.683 300.433 C 323.516 295.647,323.098 295.959,329.492 296.089 L 335.000 296.200 335.000 300.000 M298.200 308.000 L 298.200 311.800 280.200 311.800 L 262.200 311.800 262.083 308.433 C 262.018 306.582,262.058 304.825,262.172 304.529 C 262.341 304.088,265.590 304.010,280.289 304.096 L 298.200 304.200 298.200 308.000 M249.800 316.000 L 249.800 319.800 241.000 319.800 L 232.200 319.800 232.083 316.433 C 231.913 311.562,231.070 311.968,241.090 312.092 L 249.800 312.200 249.800 316.000 M323.115 316.108 L 323.229 320.016 314.515 319.908 L 305.800 319.800 305.683 316.433 C 305.513 311.566,304.697 311.968,314.491 312.092 L 323.000 312.200 323.115 316.108 M231.800 324.000 L 231.800 327.800 228.800 327.800 L 225.800 327.800 225.683 324.433 C 225.523 319.835,225.443 319.943,228.894 320.082 L 231.800 320.200 231.800 324.000 M335.000 324.000 L 335.000 327.800 329.805 327.670 C 323.852 327.521,324.012 327.623,324.012 324.000 C 324.012 320.205,324.301 320.073,332.400 320.169 L 335.000 320.200 335.000 324.000 M305.000 332.000 L 305.000 335.800 281.200 335.911 C 268.110 335.971,256.995 335.923,256.500 335.803 C 255.438 335.545,255.074 328.681,256.100 328.263 C 256.375 328.151,267.490 328.091,280.800 328.130 L 305.000 328.200 305.000 332.000 M243.800 340.000 L 243.800 343.800 238.000 343.800 L 232.200 343.800 232.083 340.433 C 231.916 335.639,231.471 335.960,238.092 336.089 L 243.800 336.200 243.800 340.000 M323.626 336.414 C 324.291 336.770,324.400 337.273,324.400 340.000 C 324.400 344.074,324.434 344.055,317.305 343.911 L 311.800 343.800 311.683 340.433 C 311.618 338.582,311.658 336.827,311.770 336.533 C 312.024 335.872,322.417 335.767,323.626 336.414 M335.000 348.000 L 335.000 351.800 332.400 351.800 L 329.800 351.800 329.683 348.433 C 329.525 343.893,329.495 343.938,332.495 344.081 L 335.000 344.200 335.000 348.000 " stroke="none" fill="#7d96c6" fill-rule="evenodd"></path><path id="path1" d="M176.714 3.900 L 176.600 7.800 167.600 8.000 L 158.600 8.200 158.486 12.090 L 158.371 15.979 152.286 16.090 L 146.200 16.200 146.000 20.000 L 145.800 23.800 142.900 23.918 L 140.000 24.035 140.000 28.018 L 140.000 32.000 137.014 32.000 L 134.029 32.000 133.914 35.900 L 133.800 39.800 130.900 39.918 L 128.000 40.035 128.000 44.018 L 128.000 48.000 125.000 48.000 C 121.376 48.000,121.885 46.825,121.622 55.800 L 121.400 63.400 118.800 63.600 L 116.200 63.800 116.097 87.882 L 115.994 111.963 118.697 112.082 L 121.400 112.200 121.622 120.000 C 121.744 124.290,121.879 127.837,121.922 127.882 C 121.965 127.928,123.305 128.018,124.900 128.082 L 127.800 128.200 127.914 132.083 L 128.029 135.966 130.914 136.083 L 133.800 136.200 133.914 140.100 L 134.029 144.000 137.014 144.000 L 140.000 144.000 140.000 147.982 L 140.000 151.965 142.900 152.082 L 145.800 152.200 146.000 156.000 L 146.200 159.800 149.188 159.919 C 152.791 160.063,152.786 160.057,152.794 164.500 L 152.800 168.000 155.592 168.000 L 158.383 168.000 158.492 175.900 L 158.600 183.800 161.600 184.000 L 164.600 184.200 164.704 204.108 L 164.807 224.015 173.704 223.908 L 182.600 223.800 182.706 211.900 L 182.812 200.000 185.959 200.000 C 189.893 200.000,189.588 198.918,189.595 212.906 L 189.600 224.012 201.500 223.906 L 213.400 223.800 213.506 211.900 L 213.612 200.000 216.400 200.000 L 219.188 200.000 219.294 211.900 L 219.400 223.800 228.600 223.800 L 237.800 223.800 237.904 204.236 C 238.021 182.249,237.805 183.600,241.202 183.600 L 243.506 183.600 243.853 175.900 L 244.200 168.200 247.100 168.082 L 250.000 167.965 250.000 164.615 C 250.000 159.951,249.966 160.000,253.228 160.000 L 255.971 160.000 256.086 156.100 L 256.200 152.200 259.200 152.000 L 262.200 151.800 262.314 147.917 L 262.429 144.033 265.514 143.917 L 268.600 143.800 268.714 139.917 L 268.829 136.034 271.714 135.917 L 274.600 135.800 274.800 132.000 L 275.000 128.200 277.900 128.082 L 280.800 127.965 280.800 120.000 L 280.800 112.035 283.700 111.918 L 286.600 111.800 286.600 88.000 L 286.600 64.200 283.700 64.082 L 280.800 63.965 280.800 56.000 L 280.800 48.035 277.900 47.918 L 275.000 47.800 274.800 44.000 L 274.600 40.200 271.714 40.083 L 268.829 39.966 268.714 36.083 L 268.600 32.200 265.514 32.083 L 262.429 31.967 262.314 28.083 L 262.200 24.200 259.200 24.000 L 256.200 23.800 256.086 19.911 L 255.971 16.021 250.086 15.911 L 244.200 15.800 244.086 11.907 L 243.971 8.015 234.686 7.907 L 225.400 7.800 225.286 3.900 L 225.171 0.000 201.000 -0.000 L 176.829 -0.000 176.714 3.900 M152.700 35.800 C 152.856 41.428,152.800 41.325,155.619 41.121 L 158.000 40.949 158.000 44.000 L 158.000 47.051 155.619 46.879 C 152.800 46.675,152.856 46.572,152.700 52.200 L 152.600 55.800 149.400 56.000 L 146.200 56.200 146.000 60.000 L 145.800 63.800 142.900 63.918 L 140.000 64.035 140.000 68.018 L 140.000 72.000 134.062 72.000 L 128.124 72.000 127.878 66.000 C 127.743 62.700,127.742 57.307,127.877 54.016 L 128.123 48.033 130.962 47.916 L 133.800 47.800 133.914 43.900 L 134.029 40.000 137.014 40.000 L 140.000 40.000 140.000 35.990 L 140.000 31.980 146.300 32.090 L 152.600 32.200 152.700 35.800 M170.708 120.100 L 170.817 128.000 173.808 128.000 L 176.800 128.000 176.800 124.018 L 176.800 120.035 179.700 119.918 L 182.600 119.800 182.714 115.900 L 182.829 112.000 186.000 112.000 L 189.171 112.000 189.286 115.900 L 189.400 119.800 192.300 119.918 L 195.200 120.035 195.200 124.018 L 195.200 128.000 201.200 128.000 L 207.200 128.000 207.200 124.000 L 207.200 120.000 210.400 120.000 L 213.600 120.000 213.600 116.000 L 213.600 112.000 216.400 112.000 L 219.200 112.000 219.200 116.000 L 219.200 120.000 222.400 120.000 L 225.600 120.000 225.600 124.000 L 225.600 128.000 228.800 128.000 L 232.000 128.000 232.000 119.982 L 232.000 111.965 234.900 112.082 L 237.800 112.200 237.800 124.000 L 237.800 135.800 235.000 136.000 L 232.200 136.200 232.095 152.100 L 231.991 168.000 228.800 168.000 L 225.609 168.000 225.505 183.900 L 225.400 199.800 222.295 199.917 L 219.191 200.034 219.295 184.117 L 219.400 168.200 222.500 168.083 L 225.600 167.966 225.600 147.999 L 225.600 128.032 222.300 127.916 L 219.000 127.800 218.885 124.100 L 218.770 120.400 216.400 120.400 L 214.030 120.400 213.915 124.100 L 213.800 127.800 210.500 127.916 L 207.200 128.032 207.200 132.016 L 207.200 136.000 201.200 136.000 L 195.200 136.000 195.200 132.018 L 195.200 128.035 192.300 127.918 L 189.400 127.800 189.286 123.900 L 189.171 120.000 186.000 120.000 L 182.829 120.000 182.714 123.900 L 182.600 127.800 179.720 127.917 L 176.840 128.034 176.637 144.717 C 176.526 153.893,176.322 162.804,176.185 164.519 L 175.935 167.638 173.668 167.519 L 171.400 167.400 171.075 163.600 C 170.896 161.510,170.626 154.400,170.475 147.800 L 170.200 135.800 167.761 135.683 L 165.322 135.565 165.061 130.119 C 164.918 127.124,164.800 121.814,164.800 118.319 L 164.800 111.965 167.700 112.082 L 170.600 112.200 170.708 120.100 M182.600 180.000 L 182.600 191.800 179.700 191.918 L 176.800 192.035 176.800 180.000 L 176.800 167.965 179.700 168.082 L 182.600 168.200 182.600 180.000 M54.800 311.989 L 54.800 400.000 207.400 400.000 L 360.000 400.000 360.000 312.000 L 360.000 224.000 354.182 224.000 L 348.363 224.000 348.482 291.432 C 348.615 367.676,348.271 360.308,351.684 359.871 C 353.920 359.584,353.897 359.438,354.211 376.237 L 354.503 391.873 351.152 392.134 C 344.281 392.669,66.401 392.440,66.382 391.900 C 66.373 391.625,66.328 353.780,66.282 307.800 L 66.200 224.200 60.500 224.089 L 54.800 223.978 54.800 311.989 " stroke="none" fill="#f6bf56" fill-rule="evenodd"></path><path id="path2" d="M0.000 200.000 L 0.000 400.000 27.200 400.000 L 54.400 400.000 54.400 312.000 C 54.400 263.600,54.445 223.973,54.500 223.939 C 54.555 223.906,57.210 223.771,60.400 223.639 L 66.200 223.400 66.400 219.600 L 66.600 215.800 72.800 215.600 L 79.000 215.400 79.200 211.600 L 79.400 207.800 82.400 207.600 L 85.400 207.400 85.600 195.800 L 85.800 184.200 88.500 184.082 L 91.200 183.963 91.200 179.992 L 91.200 176.021 97.100 175.911 L 103.000 175.800 103.114 171.900 L 103.229 168.000 127.400 168.000 C 155.033 168.000,152.405 168.407,152.395 164.126 C 152.385 160.004,152.381 160.000,148.753 160.000 L 145.600 160.000 145.600 156.000 L 145.600 152.000 142.800 152.000 L 140.000 152.000 140.000 148.000 L 140.000 144.000 136.800 144.000 L 133.600 144.000 133.600 140.000 L 133.600 136.000 130.814 136.000 L 128.029 136.000 127.914 132.100 L 127.800 128.200 124.700 128.083 L 121.600 127.966 121.598 125.483 C 121.597 124.117,121.479 120.690,121.335 117.868 L 121.073 112.735 118.756 112.868 C 115.744 113.040,116.012 115.876,116.005 83.700 L 116.000 56.000 118.800 56.000 L 121.600 56.000 121.600 52.000 L 121.600 48.000 124.862 48.000 L 128.124 48.000 127.878 54.000 C 127.743 57.300,127.743 62.700,127.878 66.000 L 128.124 72.000 134.062 72.000 L 140.000 72.000 140.000 68.018 L 140.000 64.035 142.900 63.918 L 145.800 63.800 146.000 60.000 L 146.200 56.200 149.400 56.000 L 152.600 55.800 152.700 52.200 C 152.856 46.572,152.800 46.675,155.619 46.879 L 158.000 47.051 158.000 44.000 L 158.000 40.949 155.619 41.121 C 152.800 41.325,152.856 41.428,152.700 35.800 L 152.600 32.200 146.300 32.090 L 140.000 31.980 140.000 27.990 L 140.000 24.000 142.800 24.000 L 145.600 24.000 145.600 20.000 L 145.600 16.000 151.986 16.000 L 158.371 16.000 158.486 12.100 L 158.600 8.200 167.455 8.092 C 177.707 7.968,176.785 8.461,176.795 3.100 L 176.800 0.000 88.400 0.000 L 0.000 0.000 0.000 200.000 M225.686 3.900 L 225.800 7.800 234.886 7.907 L 243.971 8.015 244.086 11.907 L 244.200 15.800 250.165 16.000 L 256.130 16.200 256.040 19.279 C 255.911 23.646,256.179 24.000,259.614 24.000 L 262.400 24.000 262.400 27.983 L 262.400 31.966 265.500 32.083 L 268.600 32.200 268.714 36.083 L 268.829 39.967 271.914 40.083 L 275.000 40.200 275.114 44.100 L 275.229 48.000 278.014 48.000 L 280.800 48.000 280.800 56.000 L 280.800 64.000 284.000 64.000 L 287.200 64.000 287.200 88.000 L 287.200 112.000 284.000 112.000 L 280.800 112.000 280.800 120.000 L 280.800 128.000 278.014 128.000 L 275.229 128.000 275.114 131.900 L 275.000 135.800 271.914 135.917 L 268.829 136.033 268.714 139.917 L 268.600 143.800 265.500 143.917 L 262.400 144.034 262.400 148.017 L 262.400 152.000 259.614 152.000 C 256.179 152.000,255.911 152.354,256.040 156.721 L 256.131 159.800 253.280 159.917 L 250.429 160.034 250.314 163.917 L 250.200 167.800 247.200 168.000 L 244.200 168.200 244.092 176.100 L 243.983 184.000 241.192 184.000 L 238.400 184.000 238.400 191.800 L 238.400 199.600 250.000 199.600 L 261.600 199.600 261.600 196.080 C 261.600 193.876,261.779 192.381,262.080 192.080 C 262.613 191.547,286.465 191.388,294.700 191.863 L 299.200 192.122 299.200 195.861 L 299.200 199.600 311.120 199.600 C 325.014 199.600,324.000 199.247,324.000 204.080 L 324.000 207.600 329.367 207.600 C 336.451 207.600,336.000 207.311,336.000 211.843 L 336.000 215.600 341.567 215.600 C 348.876 215.600,348.400 215.305,348.400 219.832 L 348.400 223.578 354.100 223.689 L 359.800 223.800 359.901 311.900 L 360.002 400.000 380.001 400.000 L 400.000 400.000 400.000 200.000 L 400.000 0.000 312.786 -0.000 L 225.571 -0.000 225.686 3.900 M140.000 36.000 L 140.000 40.000 137.014 40.000 L 134.029 40.000 133.914 43.900 L 133.800 47.800 130.900 47.918 L 128.000 48.035 128.000 44.018 L 128.000 40.000 130.800 40.000 L 133.600 40.000 133.600 36.000 L 133.600 32.000 136.800 32.000 L 140.000 32.000 140.000 36.000 M152.970 168.533 C 152.858 168.827,152.818 170.582,152.883 172.433 L 153.000 175.800 155.600 175.800 L 158.200 175.800 158.314 171.900 L 158.429 168.000 155.802 168.000 C 153.981 168.000,153.112 168.164,152.970 168.533 " stroke="none" fill="#fbfbfb" fill-rule="evenodd"></path><path id="path3" d="M225.264 3.676 C 225.229 5.808,225.335 7.637,225.500 7.740 C 225.665 7.842,225.751 6.638,225.691 5.063 C 225.504 0.190,225.331 -0.374,225.264 3.676 M145.664 19.900 C 145.730 23.913,145.896 23.445,146.090 18.699 C 146.150 17.214,146.065 15.999,145.900 15.999 C 145.735 16.000,145.629 17.755,145.664 19.900 M133.746 35.800 C 133.747 38.000,133.814 38.849,133.895 37.687 C 133.976 36.524,133.976 34.724,133.893 33.687 C 133.811 32.649,133.745 33.600,133.746 35.800 M274.797 43.918 L 274.994 47.800 275.114 44.236 C 275.179 42.277,275.091 40.530,274.916 40.355 C 274.742 40.180,274.689 41.783,274.797 43.918 M116.000 59.900 L 115.999 63.800 118.700 63.600 L 121.400 63.400 121.515 59.700 L 121.630 56.000 118.815 56.000 L 116.000 56.000 116.000 59.900 M286.600 88.000 C 286.600 101.200,286.735 112.000,286.900 112.000 C 287.065 112.000,287.200 101.200,287.200 88.000 C 287.200 74.800,287.065 64.000,286.900 64.000 C 286.735 64.000,286.600 74.800,286.600 88.000 M116.399 112.481 C 116.399 112.863,117.026 112.965,118.783 112.865 L 121.168 112.731 121.310 116.265 L 121.452 119.800 121.426 116.000 L 121.400 112.200 118.900 112.081 C 117.057 111.993,116.400 112.098,116.399 112.481 M274.797 132.082 C 274.689 134.217,274.742 135.820,274.916 135.645 C 275.091 135.470,275.179 133.723,275.114 131.764 L 274.994 128.200 274.797 132.082 M133.746 140.200 C 133.747 142.400,133.814 143.249,133.895 142.087 C 133.976 140.924,133.976 139.124,133.893 138.087 C 133.811 137.049,133.745 138.000,133.746 140.200 M145.664 156.100 C 145.629 158.245,145.735 160.000,145.900 160.001 C 146.065 160.001,146.150 158.786,146.090 157.301 C 145.896 152.555,145.730 152.087,145.664 156.100 M152.312 163.101 C 152.427 165.084,152.322 166.598,152.034 167.137 L 151.572 168.000 127.400 168.000 L 103.229 168.000 103.114 171.900 L 103.000 175.800 97.100 175.911 L 91.200 176.021 91.200 179.992 L 91.200 183.963 88.500 184.082 L 85.800 184.200 85.600 195.800 L 85.400 207.400 82.400 207.600 L 79.400 207.800 79.200 211.600 L 79.000 215.400 72.800 215.600 L 66.600 215.800 66.400 219.600 L 66.200 223.400 60.800 223.618 L 55.400 223.836 61.100 223.918 L 66.800 224.000 66.800 220.200 L 66.800 216.400 73.200 216.400 L 79.600 216.400 79.600 212.400 L 79.600 208.400 82.300 208.400 L 85.000 208.400 85.000 280.100 L 85.000 351.800 87.965 351.919 C 91.562 352.063,91.586 352.036,91.594 347.717 L 91.600 344.434 94.700 344.317 L 97.800 344.200 97.915 340.486 C 98.042 336.393,98.800 335.654,98.800 339.624 C 98.800 341.997,98.801 342.000,100.000 342.000 C 101.195 342.000,101.200 341.991,101.200 339.680 C 101.200 336.196,99.181 336.400,133.728 336.400 L 163.600 336.400 163.600 339.920 C 163.600 344.678,163.001 344.400,173.266 344.400 L 181.971 344.400 182.086 348.300 L 182.200 352.200 185.286 352.317 L 188.371 352.433 188.486 356.317 L 188.600 360.200 191.600 360.400 L 194.600 360.600 194.714 364.500 L 194.829 368.400 197.614 368.400 L 200.400 368.400 200.400 371.920 C 200.400 374.124,200.579 375.619,200.880 375.920 C 201.649 376.689,207.453 376.561,207.757 375.767 C 208.075 374.940,208.075 273.860,207.757 273.033 C 207.541 272.469,205.566 272.400,189.590 272.400 C 168.269 272.400,170.400 272.871,170.400 268.157 L 170.400 264.400 167.900 264.394 C 166.525 264.391,165.154 264.232,164.853 264.041 C 164.394 263.751,164.330 257.255,164.453 223.947 L 164.600 184.200 161.600 184.000 L 158.600 183.800 158.400 179.800 L 158.200 175.800 155.600 175.800 L 153.000 175.800 152.902 168.468 C 152.848 164.436,152.652 160.865,152.466 160.532 C 152.271 160.183,152.206 161.267,152.312 163.101 M250.142 164.200 C 250.141 166.180,250.208 167.040,250.292 166.112 C 250.376 165.184,250.377 163.564,250.295 162.512 C 250.212 161.460,250.143 162.220,250.142 164.200 M243.600 179.981 L 243.600 183.562 241.100 183.704 L 238.600 183.846 241.300 183.923 L 244.000 184.000 244.000 180.200 C 244.000 178.110,243.910 176.400,243.800 176.400 C 243.690 176.400,243.600 178.011,243.600 179.981 M238.091 203.767 C 238.041 214.528,238.083 223.250,238.185 223.149 C 238.286 223.047,238.391 217.887,238.419 211.682 L 238.468 200.400 250.616 200.400 L 262.764 200.400 263.034 198.962 C 263.182 198.171,263.211 196.371,263.098 194.962 L 262.892 192.400 280.632 192.400 L 298.371 192.400 298.486 196.300 L 298.600 200.200 310.700 200.306 C 318.308 200.372,322.800 200.558,322.800 200.806 C 322.800 201.023,322.080 201.200,321.200 201.200 C 320.320 201.200,319.600 201.380,319.600 201.600 C 319.600 201.820,319.255 202.000,318.834 202.000 C 318.164 202.000,317.343 206.715,317.868 207.547 C 318.426 208.431,321.486 207.986,321.307 207.047 C 321.188 206.423,321.287 206.000,321.553 206.000 C 321.799 206.000,322.000 206.283,322.000 206.629 C 322.000 208.163,322.934 208.400,328.971 208.400 L 334.800 208.400 334.800 212.400 L 334.800 216.400 341.200 216.400 L 347.600 216.400 347.600 220.200 L 347.600 224.000 353.700 223.912 L 359.800 223.824 354.100 223.701 L 348.400 223.578 348.400 219.832 C 348.400 215.305,348.876 215.600,341.567 215.600 L 336.000 215.600 336.000 211.843 C 336.000 207.311,336.451 207.600,329.367 207.600 L 324.000 207.600 324.000 204.080 C 324.000 199.247,325.014 199.600,311.120 199.600 L 299.200 199.600 299.200 195.861 L 299.200 192.122 294.700 191.863 C 286.465 191.388,262.613 191.547,262.080 192.080 C 261.779 192.381,261.600 193.876,261.600 196.080 L 261.600 199.600 250.009 199.600 L 238.417 199.600 238.299 191.900 C 238.235 187.665,238.141 193.005,238.091 203.767 M68.400 220.400 L 68.400 222.800 70.000 222.800 L 71.600 222.800 71.600 220.400 L 71.600 218.000 70.000 218.000 L 68.400 218.000 68.400 220.400 M54.596 312.000 C 54.596 360.510,54.643 380.355,54.700 356.100 C 54.757 331.845,54.757 292.155,54.700 267.900 C 54.643 243.645,54.596 263.490,54.596 312.000 " stroke="none" fill="#bbdbf3" fill-rule="evenodd"></path><path id="path4" d="M164.800 118.319 C 164.800 121.814,164.918 127.124,165.061 130.119 L 165.322 135.565 167.761 135.683 L 170.200 135.800 170.475 147.800 C 170.626 154.400,170.896 161.510,171.075 163.600 L 171.400 167.400 173.668 167.519 L 175.935 167.638 176.185 164.519 C 176.322 162.804,176.526 153.893,176.637 144.717 L 176.840 128.034 179.720 127.917 L 182.600 127.800 182.714 123.900 L 182.829 120.000 186.000 120.000 L 189.171 120.000 189.286 123.900 L 189.400 127.800 192.300 127.918 L 195.200 128.035 195.200 132.018 L 195.200 136.000 201.200 136.000 L 207.200 136.000 207.200 132.016 L 207.200 128.032 210.500 127.916 L 213.800 127.800 213.915 124.100 L 214.030 120.400 216.400 120.400 L 218.770 120.400 218.885 124.100 L 219.000 127.800 222.300 127.916 L 225.600 128.032 225.600 147.999 L 225.600 167.966 222.500 168.083 L 219.400 168.200 219.295 184.100 L 219.191 200.000 216.401 200.000 L 213.612 200.000 213.506 211.900 L 213.400 223.800 201.500 223.906 L 189.600 224.012 189.595 212.906 C 189.588 198.918,189.893 200.000,185.959 200.000 L 182.812 200.000 182.706 211.900 L 182.600 223.800 173.800 224.000 L 165.000 224.200 164.896 243.900 L 164.792 263.600 167.164 263.600 C 170.860 263.600,170.800 263.530,170.800 267.843 L 170.800 271.600 183.735 271.600 C 190.849 271.600,203.172 271.719,211.121 271.865 L 225.573 272.129 225.686 275.965 L 225.800 279.800 231.700 279.911 L 237.600 280.021 237.600 276.011 L 237.600 272.000 234.600 272.000 C 231.667 272.000,231.600 271.978,231.600 271.000 C 231.600 270.067,231.467 270.000,229.600 270.000 L 227.600 270.000 227.600 268.000 L 227.600 266.000 229.600 266.000 C 231.467 266.000,231.600 265.933,231.600 265.000 C 231.600 264.024,231.670 264.000,234.553 264.000 L 237.507 264.000 237.795 259.900 C 238.137 255.037,238.135 250.580,237.787 241.451 C 237.645 237.738,237.642 234.101,237.780 233.368 L 238.030 232.034 240.915 231.917 L 243.800 231.800 243.800 228.000 L 243.800 224.200 231.600 224.000 L 219.400 223.800 219.294 211.917 L 219.188 200.034 222.294 199.917 L 225.400 199.800 225.505 183.900 L 225.609 168.000 228.800 168.000 L 231.991 168.000 232.095 152.100 L 232.200 136.200 235.000 136.000 L 237.800 135.800 237.800 124.000 L 237.800 112.200 234.900 112.082 L 232.000 111.965 232.000 119.982 L 232.000 128.000 228.800 128.000 L 225.600 128.000 225.600 124.000 L 225.600 120.000 222.400 120.000 L 219.200 120.000 219.200 116.000 L 219.200 112.000 216.400 112.000 L 213.600 112.000 213.600 116.000 L 213.600 120.000 210.400 120.000 L 207.200 120.000 207.200 124.000 L 207.200 128.000 201.200 128.000 L 195.200 128.000 195.200 124.018 L 195.200 120.035 192.300 119.918 L 189.400 119.800 189.286 115.900 L 189.171 112.000 186.000 112.000 L 182.829 112.000 182.714 115.900 L 182.600 119.800 179.700 119.918 L 176.800 120.035 176.800 124.018 L 176.800 128.000 173.808 128.000 L 170.817 128.000 170.708 120.100 L 170.600 112.200 167.700 112.082 L 164.800 111.965 164.800 118.319 M176.800 180.000 L 176.800 192.035 179.700 191.918 L 182.600 191.800 182.600 180.000 L 182.600 168.200 179.700 168.082 L 176.800 167.965 176.800 180.000 M253.500 216.295 L 250.800 216.437 250.800 219.977 L 250.800 223.518 256.100 223.782 C 259.015 223.927,271.210 223.991,283.200 223.923 L 305.000 223.800 305.000 220.000 L 305.000 216.200 280.600 216.177 C 267.180 216.164,254.985 216.217,253.500 216.295 M311.770 224.533 C 311.658 224.827,311.618 226.582,311.683 228.433 L 311.800 231.800 317.400 231.900 C 324.845 232.033,325.000 231.953,325.000 228.000 C 325.000 225.227,324.932 224.989,324.000 224.518 C 322.553 223.786,312.052 223.799,311.770 224.533 M329.778 232.514 C 329.661 232.818,329.618 234.582,329.683 236.433 L 329.800 239.800 332.400 239.800 L 335.000 239.800 335.000 236.000 L 335.000 232.200 332.495 232.081 C 330.648 231.993,329.934 232.107,329.778 232.514 M247.800 240.369 L 245.000 240.600 245.000 244.000 L 245.000 247.400 248.800 247.697 C 250.890 247.861,265.740 247.951,281.800 247.897 L 311.000 247.800 311.000 244.000 L 311.000 240.200 280.800 240.169 C 264.190 240.153,249.340 240.243,247.800 240.369 M317.770 248.533 C 317.658 248.827,317.618 250.582,317.683 252.433 L 317.800 255.800 323.451 255.911 C 329.927 256.038,329.589 256.253,329.589 252.000 C 329.589 247.788,329.910 248.000,323.541 248.000 C 319.271 248.000,317.927 248.124,317.770 248.533 M244.172 264.528 C 244.059 264.824,244.018 266.582,244.083 268.433 L 244.200 271.800 256.400 271.800 L 268.600 271.800 268.600 268.000 L 268.600 264.200 256.490 264.094 C 246.626 264.008,244.341 264.088,244.172 264.528 M292.800 267.994 L 292.800 272.000 305.014 272.000 L 317.229 272.000 317.114 268.100 L 317.000 264.200 304.900 264.094 L 292.800 263.988 292.800 267.994 M320.500 272.297 L 317.600 272.435 317.600 275.973 L 317.600 279.510 323.205 279.800 C 330.099 280.157,330.000 280.212,330.000 276.031 C 330.000 271.659,330.422 271.825,320.500 272.297 M238.573 288.525 C 238.459 288.823,238.418 290.582,238.483 292.433 L 238.600 295.800 247.200 295.800 L 255.800 295.800 255.800 292.000 L 255.800 288.200 247.291 288.092 C 240.430 288.005,238.741 288.089,238.573 288.525 M299.373 288.526 C 299.259 288.823,299.218 290.582,299.283 292.433 L 299.400 295.800 308.400 295.800 L 317.400 295.800 317.400 292.000 L 317.400 288.200 308.490 288.092 C 301.296 288.005,299.541 288.089,299.373 288.526 M225.777 296.516 C 225.661 296.819,225.618 298.582,225.683 300.433 L 225.800 303.800 228.800 303.800 L 231.800 303.800 231.800 300.000 L 231.800 296.200 228.894 296.082 C 226.712 295.994,225.936 296.102,225.777 296.516 M323.775 296.522 C 323.660 296.822,323.618 298.582,323.683 300.433 L 323.800 303.800 329.400 303.800 L 335.000 303.800 335.000 300.000 L 335.000 296.200 329.492 296.089 C 325.135 296.001,323.940 296.091,323.775 296.522 M262.172 304.529 C 262.058 304.825,262.018 306.582,262.083 308.433 L 262.200 311.800 280.200 311.800 L 298.200 311.800 298.200 308.000 L 298.200 304.200 280.289 304.096 C 265.590 304.010,262.341 304.088,262.172 304.529 M232.173 312.526 C 232.059 312.823,232.018 314.582,232.083 316.433 L 232.200 319.800 241.000 319.800 L 249.800 319.800 249.800 316.000 L 249.800 312.200 241.090 312.092 C 234.063 312.005,232.341 312.089,232.173 312.526 M305.773 312.525 C 305.659 312.823,305.618 314.582,305.683 316.433 L 305.800 319.800 314.515 319.908 L 323.229 320.016 323.115 316.108 L 323.000 312.200 314.491 312.092 C 307.630 312.005,305.941 312.089,305.773 312.525 M225.777 320.516 C 225.661 320.819,225.618 322.582,225.683 324.433 L 225.800 327.800 228.800 327.800 L 231.800 327.800 231.800 324.000 L 231.800 320.200 228.894 320.082 C 226.712 319.994,225.936 320.102,225.777 320.516 M327.210 320.291 C 324.146 320.471,324.012 320.626,324.012 324.000 C 324.012 327.623,323.852 327.521,329.805 327.670 L 335.000 327.800 335.000 324.000 L 335.000 320.200 332.400 320.169 C 330.970 320.152,328.635 320.207,327.210 320.291 M256.100 328.263 C 255.074 328.681,255.438 335.545,256.500 335.803 C 256.995 335.923,268.110 335.971,281.200 335.911 L 305.000 335.800 305.000 332.000 L 305.000 328.200 280.800 328.130 C 267.490 328.091,256.375 328.151,256.100 328.263 M232.174 336.522 C 232.060 336.822,232.018 338.582,232.083 340.433 L 232.200 343.800 238.000 343.800 L 243.800 343.800 243.800 340.000 L 243.800 336.200 238.092 336.089 C 233.568 336.001,232.340 336.091,232.174 336.522 M311.770 336.533 C 311.658 336.827,311.618 338.582,311.683 340.433 L 311.800 343.800 317.305 343.911 C 324.434 344.055,324.400 344.074,324.400 340.000 C 324.400 337.273,324.291 336.770,323.626 336.414 C 322.417 335.767,312.024 335.872,311.770 336.533 M329.778 344.514 C 329.661 344.818,329.618 346.582,329.683 348.433 L 329.800 351.800 332.400 351.800 L 335.000 351.800 335.000 348.000 L 335.000 344.200 332.495 344.081 C 330.648 343.993,329.934 344.107,329.778 344.514 M348.385 367.995 C 348.206 383.238,348.173 383.794,347.423 383.939 C 346.996 384.021,344.251 383.960,341.323 383.803 L 336.000 383.518 336.000 379.967 C 336.000 375.725,336.554 376.037,328.800 375.897 L 323.400 375.800 323.200 372.000 L 323.000 368.200 314.200 368.000 L 305.400 367.800 305.200 364.000 L 305.000 360.200 281.600 360.102 C 268.730 360.049,256.490 360.139,254.400 360.302 L 250.600 360.600 250.485 364.293 L 250.370 367.985 241.285 368.093 L 232.200 368.200 232.086 372.090 L 231.971 375.979 225.886 376.090 L 219.800 376.200 219.600 380.000 L 219.400 383.800 207.315 383.906 L 195.229 384.012 195.115 380.106 L 195.000 376.200 188.800 376.000 L 182.600 375.800 182.400 372.000 L 182.200 368.200 173.400 368.000 L 164.600 367.800 164.485 364.104 C 164.341 359.473,167.759 359.958,136.200 360.090 L 109.800 360.200 109.686 364.093 L 109.571 367.985 100.486 368.093 L 91.400 368.200 91.286 372.089 L 91.171 375.979 85.286 376.089 L 79.400 376.200 79.286 380.100 L 79.171 384.000 72.586 384.000 L 66.000 384.000 66.000 387.567 C 66.000 389.529,66.109 391.419,66.243 391.767 C 66.496 392.427,342.816 392.783,351.152 392.134 L 354.503 391.873 354.211 376.237 C 353.899 359.565,353.895 359.537,351.830 359.873 C 349.328 360.279,348.848 359.637,348.700 355.694 C 348.628 353.772,348.486 359.308,348.385 367.995 " stroke="none" fill="#637189" fill-rule="evenodd"></path></g></svg>